<svg width="375" height="1308" viewBox="0 0 375 1308" fill="none" xmlns="http://www.w3.org/2000/svg">
<g opacity="0.5" filter="url(#filter0_f_1_808)">
<circle cx="-252.328" cy="250.852" r="229.457" fill="#FFDAB9"/>
</g>
<g opacity="0.7" filter="url(#filter1_f_1_808)">
<circle cx="724.664" cy="620.258" r="229.457" fill="#87CEEB"/>
</g>
<rect x="779.657" y="139.727" width="749.432" height="1092.29" transform="rotate(90 779.657 139.727)" fill="url(#paint0_linear_1_808)" fill-opacity="0.1"/>
<g opacity="0.12">
<path d="M168.753 191.155V196.469H155.067V204.887H165.555V210.107H155.067V223.981H148.483V191.155H168.753Z" fill="url(#paint1_linear_1_808)"/>
<path d="M378.644 210.812L366.698 196.186V210.812H360.114V177.986H366.698V192.706L378.644 177.986H386.592L373.047 194.258L386.968 210.812H378.644Z" fill="url(#paint2_linear_1_808)"/>
<path d="M407.032 613.602L397.417 648.017H389.282L382.823 623.513L376.068 648.017L367.982 648.066L358.713 613.602H366.109L372.173 640.325L379.174 613.602H386.866L393.473 640.178L399.586 613.602H407.032Z" fill="url(#paint3_linear_1_808)"/>
<path d="M292.228 699.892H307.71V705.71H284.241V700.385L299.624 677.113H284.241V671.295H307.71V676.62L292.228 699.892Z" fill="url(#paint4_linear_1_808)"/>
<path d="M313.725 781.664V816.079H306.822V801.435H292.08V816.079H285.177V781.664H292.08V795.815H306.822V781.664H313.725Z" fill="url(#paint5_linear_1_808)"/>
<path d="M392.113 862.196L383.001 846.103H379.096V862.196H370.813V820.899H386.314C389.509 820.899 392.231 821.471 394.479 822.614C396.727 823.719 398.404 825.237 399.508 827.17C400.652 829.064 401.224 831.193 401.224 833.56C401.224 836.282 400.435 838.747 398.857 840.956C397.28 843.125 394.933 844.624 391.817 845.452L401.697 862.196H392.113ZM379.096 839.891H386.018C388.267 839.891 389.943 839.358 391.048 838.293C392.152 837.189 392.704 835.67 392.704 833.738C392.704 831.844 392.152 830.385 391.048 829.359C389.943 828.294 388.267 827.762 386.018 827.762H379.096V839.891Z" fill="url(#paint6_linear_1_808)"/>
<path d="M367.143 925.624V966.921H358.86V949.349H341.169V966.921H332.886V925.624H341.169V942.604H358.86V925.624H367.143Z" fill="url(#paint7_linear_1_808)"/>
<path d="M380.699 440.367V464.898C380.699 468.302 379.715 470.956 377.746 472.858C375.776 474.727 373.14 475.662 369.836 475.662C366.498 475.662 363.795 474.694 361.725 472.758C359.689 470.822 358.671 468.119 358.671 464.648H365.68C365.714 466.15 366.064 467.318 366.732 468.152C367.432 468.987 368.434 469.404 369.735 469.404C371.004 469.404 371.972 469.003 372.639 468.202C373.307 467.401 373.64 466.3 373.64 464.898V440.367H380.699Z" fill="url(#paint8_linear_1_808)"/>
<path d="M293.002 528.854H279.084L276.781 535.512H269.422L281.988 500.518H290.148L302.714 535.512H295.305L293.002 528.854ZM291.099 523.247L286.043 508.628L280.987 523.247H291.099Z" fill="url(#paint9_linear_1_808)"/>
<path d="M347.286 301.443C344.214 301.443 341.392 300.722 338.821 299.28C336.25 297.837 334.212 295.847 332.707 293.307C331.202 290.736 330.45 287.836 330.45 284.607C330.45 281.409 331.202 278.54 332.707 276C334.212 273.429 336.25 271.423 338.821 269.98C341.392 268.538 344.214 267.817 347.286 267.817C350.39 267.817 353.212 268.538 355.751 269.98C358.322 271.423 360.345 273.429 361.818 276C363.323 278.54 364.076 281.409 364.076 284.607C364.076 287.836 363.323 290.736 361.818 293.307C360.345 295.847 358.322 297.837 355.751 299.28C353.18 300.722 350.359 301.443 347.286 301.443ZM347.286 295.564C349.261 295.564 351.001 295.125 352.506 294.248C354.011 293.338 355.187 292.053 356.034 290.391C356.88 288.729 357.303 286.801 357.303 284.607C357.303 282.412 356.88 280.499 356.034 278.869C355.187 277.207 354.011 275.938 352.506 275.06C351.001 274.182 349.261 273.743 347.286 273.743C345.311 273.743 343.555 274.182 342.019 275.06C340.514 275.938 339.338 277.207 338.492 278.869C337.645 280.499 337.222 282.412 337.222 284.607C337.222 286.801 337.645 288.729 338.492 290.391C339.338 292.053 340.514 293.338 342.019 294.248C343.555 295.125 345.311 295.564 347.286 295.564Z" fill="url(#paint10_linear_1_808)"/>
<path d="M252.503 351.534C251.75 350.154 250.715 349.104 249.399 348.383C248.082 347.662 246.546 347.301 244.79 347.301C242.846 347.301 241.121 347.74 239.617 348.618C238.112 349.496 236.936 350.75 236.089 352.38C235.243 354.011 234.82 355.892 234.82 358.024C234.82 360.219 235.243 362.131 236.089 363.761C236.967 365.392 238.174 366.646 239.711 367.524C241.247 368.402 243.034 368.841 245.072 368.841C247.58 368.841 249.634 368.182 251.233 366.865C252.832 365.517 253.882 363.652 254.384 361.269H243.097V356.237H260.874V361.974C260.435 364.263 259.494 366.379 258.052 368.323C256.61 370.267 254.744 371.835 252.456 373.026C250.198 374.186 247.659 374.766 244.837 374.766C241.67 374.766 238.801 374.061 236.23 372.65C233.691 371.208 231.684 369.217 230.211 366.677C228.769 364.138 228.047 361.253 228.047 358.024C228.047 354.795 228.769 351.91 230.211 349.371C231.684 346.8 233.691 344.809 236.23 343.398C238.801 341.956 241.654 341.235 244.79 341.235C248.489 341.235 251.703 342.144 254.431 343.962C257.158 345.749 259.04 348.273 260.074 351.534H252.503Z" fill="url(#paint11_linear_1_808)"/>
<path d="M111.072 628.882H121.889V634.102H104.488V601.276H111.072V628.882Z" fill="url(#paint12_linear_1_808)"/>
<path d="M154.65 879.707C158.099 879.707 161.124 880.381 163.726 881.729C166.36 883.077 168.382 885.005 169.793 887.513C171.235 889.99 171.957 892.875 171.957 896.167C171.957 899.459 171.235 902.343 169.793 904.82C168.382 907.266 166.36 909.163 163.726 910.511C161.124 911.859 158.099 912.533 154.65 912.533H143.175V879.707H154.65ZM154.415 906.936C157.863 906.936 160.528 905.996 162.41 904.115C164.291 902.234 165.231 899.584 165.231 896.167C165.231 892.749 164.291 890.084 162.41 888.172C160.528 886.228 157.863 885.256 154.415 885.256H149.759V906.936H154.415Z" fill="url(#paint13_linear_1_808)"/>
<path d="M328.134 191.155V196.469H314.448V204.887H324.936V210.107H314.448V223.981H307.864V191.155H328.134Z" fill="url(#paint14_linear_1_808)"/>
<path d="M270.454 587.494H281.271V592.714H263.87V559.887H270.454V587.494Z" fill="url(#paint15_linear_1_808)"/>
<path d="M314.03 879.707C317.478 879.707 320.504 880.381 323.106 881.729C325.74 883.077 327.762 885.005 329.173 887.513C330.615 889.99 331.336 892.875 331.336 896.167C331.336 899.459 330.615 902.343 329.173 904.82C327.762 907.266 325.74 909.163 323.106 910.511C320.504 911.859 317.478 912.533 314.03 912.533H302.554V879.707H314.03ZM313.794 906.936C317.243 906.936 319.908 905.996 321.789 904.115C323.671 902.234 324.611 899.584 324.611 896.167C324.611 892.749 323.671 890.084 321.789 888.172C319.908 886.228 317.243 885.256 313.794 885.256H309.139V906.936H313.794Z" fill="url(#paint16_linear_1_808)"/>
<path d="M469.47 740.424V780.025H404.288V985.034H355.226V780.025H290.043V740.424H469.47Z" fill="url(#paint17_linear_1_808)"/>
<path d="M374.775 908.833L327.873 999.258V1047.55H300.05V999.258L252.95 908.833H284.35L314.16 972.23L343.772 908.833H374.775Z" fill="url(#paint18_linear_1_808)"/>
<path d="M338.446 899.556L308.436 852.853L281.21 899.556H249.809L293.531 829.601L249.213 760.839H281.21L311.219 807.343L338.247 760.839H369.647L326.124 830.595L370.442 899.556H338.446Z" fill="url(#paint19_linear_1_808)"/>
<path d="M509.109 660.087H409.577L393.108 707.705H340.478L430.343 457.443H488.701L578.567 707.705H525.578L509.109 660.087ZM495.504 619.988L459.343 515.444L423.182 619.988H495.504Z" fill="url(#paint20_linear_1_808)"/>
<path d="M389.691 383.907V458.986C389.691 469.406 386.678 477.526 380.651 483.349C374.624 489.069 366.555 491.93 356.442 491.93C346.227 491.93 337.953 488.967 331.62 483.043C325.388 477.118 322.273 468.844 322.273 458.22H343.724C343.826 462.817 344.899 466.392 346.942 468.946C349.087 471.5 352.152 472.777 356.135 472.777C360.017 472.777 362.979 471.551 365.022 469.099C367.065 466.648 368.087 463.277 368.087 458.986V383.907H389.691Z" fill="url(#paint21_linear_1_808)"/>
</g>
<g opacity="0.12">
<path d="M279.728 210.812L291.673 196.186V210.812H298.257V177.986H291.673V192.706L279.728 177.986H271.78L285.324 194.258L271.404 210.812H279.728Z" fill="url(#paint22_linear_1_808)"/>
<path d="M180.79 145.144V188.559H189.498V145.144H180.79Z" fill="url(#paint23_linear_1_808)"/>
<path d="M203.786 253.777L194.207 236.859H190.102V253.777H181.394V210.362H197.69C201.049 210.362 203.91 210.963 206.274 212.165C208.637 213.326 210.4 214.923 211.561 216.955C212.763 218.945 213.364 221.184 213.364 223.672C213.364 226.534 212.535 229.125 210.876 231.447C209.218 233.728 206.75 235.304 203.475 236.175L213.862 253.777H203.786ZM190.102 230.328H197.379C199.743 230.328 201.505 229.768 202.666 228.648C203.827 227.487 204.408 225.891 204.408 223.859C204.408 221.869 203.827 220.334 202.666 219.256C201.505 218.137 199.743 217.577 197.379 217.577H190.102V230.328Z" fill="url(#paint24_linear_1_808)"/>
<path d="M137.519 264.655L125.94 250.783C122.736 251.584 119.459 251.984 116.11 251.984C108.973 251.984 102.42 250.309 96.4485 246.96C90.4774 243.61 85.7441 238.986 82.2488 233.088C78.7534 227.117 77.0058 220.381 77.0058 212.88C77.0058 205.453 78.7534 198.79 82.2488 192.891C85.7441 186.92 90.4774 182.26 96.4485 178.91C102.42 175.56 108.973 173.886 116.11 173.886C123.319 173.886 129.873 175.56 135.771 178.91C141.742 182.26 146.439 186.92 149.862 192.891C153.357 198.79 155.105 205.453 155.105 212.88C155.105 219.653 153.648 225.842 150.735 231.449C147.895 236.984 144 241.498 139.048 244.994L156.524 264.655H137.519ZM92.7348 212.88C92.7348 217.978 93.7178 222.456 95.6839 226.316C97.6501 230.175 100.381 233.161 103.876 235.272C107.444 237.311 111.522 238.331 116.11 238.331C120.697 238.331 124.739 237.311 128.234 235.272C131.73 233.161 134.46 230.175 136.426 226.316C138.392 222.456 139.376 217.978 139.376 212.88C139.376 207.783 138.392 203.341 136.426 199.554C134.46 195.695 131.73 192.746 128.234 190.707C124.739 188.668 120.697 187.648 116.11 187.648C111.522 187.648 107.444 188.668 103.876 190.707C100.381 192.746 97.6501 195.695 95.6839 199.554C93.7178 203.341 92.7348 207.783 92.7348 212.88Z" fill="url(#paint25_linear_1_808)"/>
<path d="M38.5825 320.894L62.5704 367.142V391.842H76.8005V367.142L100.89 320.894H84.8303L69.5838 353.319L54.4389 320.894H38.5825Z" fill="url(#paint26_linear_1_808)"/>
<path d="M59.542 391.279V422.501C59.542 426.833 60.7951 430.21 63.3013 432.632C65.8075 435.01 69.1632 436.2 73.3685 436.2C77.6163 436.2 81.057 434.968 83.6907 432.504C86.2818 430.041 87.5774 426.6 87.5774 422.182H78.657C78.6146 424.094 78.1685 425.58 77.319 426.642C76.4269 427.704 75.1526 428.235 73.496 428.235C71.8818 428.235 70.6499 427.725 69.8004 426.706C68.9508 425.687 68.5261 424.285 68.5261 422.501V391.279H59.542Z" fill="url(#paint27_linear_1_808)"/>
<path d="M92.8777 543.698H87.1432L74.1586 524.078V543.698H68.4241V515.067H74.1586L87.1432 534.728V515.067H92.8777V543.698Z" fill="url(#paint28_linear_1_808)"/>
<path d="M118.123 702.254H103.892L71.6714 653.567V702.254H57.4413V631.205H71.6714L103.892 679.994V631.205H118.123V702.254Z" fill="url(#paint29_linear_1_808)"/>
<path d="M94.3005 602.833C91.9379 602.833 89.8018 602.428 87.8924 601.619C86.0152 600.81 84.5265 599.645 83.4261 598.124C82.3257 596.603 81.7594 594.807 81.727 592.735H89.0089C89.106 594.127 89.5915 595.227 90.4653 596.037C91.3715 596.846 92.6013 597.25 94.1548 597.25C95.7407 597.25 96.9867 596.878 97.8929 596.134C98.7991 595.357 99.2522 594.354 99.2522 593.124C99.2522 592.12 98.9447 591.295 98.3298 590.648C97.7149 590.001 96.9381 589.499 95.9996 589.143C95.0934 588.755 93.8312 588.334 92.213 587.881C90.0122 587.233 88.216 586.602 86.8243 585.987C85.465 585.34 84.2838 584.385 83.2805 583.123C82.3095 581.829 81.8241 580.113 81.8241 577.977C81.8241 575.971 82.3257 574.223 83.329 572.734C84.3323 571.246 85.7401 570.113 87.5525 569.336C89.3649 568.527 91.4362 568.122 93.7664 568.122C97.2618 568.122 100.094 568.98 102.262 570.695C104.463 572.378 105.676 574.741 105.903 577.783H98.4269C98.3622 576.618 97.8605 575.663 96.922 574.919C96.0158 574.142 94.8021 573.754 93.281 573.754C91.9541 573.754 90.886 574.094 90.0769 574.773C89.3002 575.453 88.9118 576.44 88.9118 577.735C88.9118 578.641 89.2031 579.401 89.7857 580.016C90.4006 580.599 91.145 581.084 92.0188 581.473C92.925 581.829 94.1872 582.249 95.8054 582.735C98.0061 583.382 99.8024 584.029 101.194 584.677C102.586 585.324 103.783 586.295 104.786 587.589C105.79 588.884 106.291 590.583 106.291 592.687C106.291 594.499 105.822 596.182 104.884 597.736C103.945 599.289 102.569 600.535 100.757 601.474C98.9447 602.38 96.7925 602.833 94.3005 602.833Z" fill="url(#paint30_linear_1_808)"/>
<path d="M127.682 648.611C130.854 648.611 133.767 647.867 136.421 646.378C139.074 644.889 141.178 642.834 142.732 640.212C144.285 637.559 145.062 634.565 145.062 631.231C145.062 627.93 144.285 624.969 142.732 622.347C141.178 619.694 139.074 617.622 136.421 616.134C133.767 614.645 130.854 613.9 127.682 613.9C124.478 613.9 121.565 614.645 118.944 616.134C116.29 617.622 114.203 619.694 112.681 622.347C111.128 624.969 110.351 627.93 110.351 631.231C110.351 634.565 111.128 637.559 112.681 640.212C114.203 642.834 116.29 644.889 118.944 646.378C121.598 647.867 124.511 648.611 127.682 648.611ZM127.682 642.543C125.643 642.543 123.847 642.09 122.294 641.183C120.74 640.245 119.526 638.918 118.653 637.203C117.779 635.487 117.342 633.497 117.342 631.231C117.342 628.966 117.779 626.992 118.653 625.309C119.526 623.593 120.74 622.283 122.294 621.377C123.847 620.47 125.643 620.017 127.682 620.017C129.721 620.017 131.534 620.47 133.119 621.377C134.673 622.283 135.887 623.593 136.76 625.309C137.634 626.992 138.071 628.966 138.071 631.231C138.071 633.497 137.634 635.487 136.76 637.203C135.887 638.918 134.673 640.245 133.119 641.183C131.534 642.09 129.721 642.543 127.682 642.543Z" fill="url(#paint31_linear_1_808)"/>
<path d="M178.431 728.518V749.49C178.431 751.787 177.832 753.551 176.634 754.781C175.437 755.979 173.754 756.577 171.586 756.577C169.385 756.577 167.686 755.979 166.488 754.781C165.291 753.551 164.692 751.787 164.692 749.49V728.518H157.847V749.441C157.847 752.321 158.478 754.765 159.74 756.771C160.97 758.746 162.637 760.234 164.741 761.238C166.812 762.241 169.126 762.743 171.683 762.743C174.207 762.743 176.505 762.241 178.576 761.238C180.615 760.234 182.233 758.746 183.431 756.771C184.628 754.765 185.227 752.321 185.227 749.441V728.518H178.431Z" fill="url(#paint32_linear_1_808)"/>
<path d="M223.087 919.804H216.29L200.901 896.55V919.804H194.105V885.87H200.901L216.29 909.172V885.87H223.087V919.804Z" fill="url(#paint33_linear_1_808)"/>
<path d="M147.405 968.43C150.577 968.43 153.489 967.686 156.143 966.197C158.797 964.708 160.901 962.653 162.454 960.032C164.008 957.378 164.784 954.384 164.784 951.051C164.784 947.75 164.008 944.788 162.454 942.167C160.901 939.513 158.797 937.442 156.143 935.953C153.489 934.464 150.577 933.72 147.405 933.72C144.201 933.72 141.288 934.464 138.667 935.953C136.013 937.442 133.925 939.513 132.404 942.167C130.851 944.788 130.074 947.75 130.074 951.051C130.074 954.384 130.851 957.378 132.404 960.032C133.925 962.653 136.013 964.708 138.667 966.197C141.32 967.686 144.233 968.43 147.405 968.43ZM147.405 962.362C145.366 962.362 143.57 961.909 142.016 961.003C140.463 960.064 139.249 958.737 138.375 957.022C137.501 955.307 137.065 953.316 137.065 951.051C137.065 948.785 137.501 946.811 138.375 945.128C139.249 943.413 140.463 942.102 142.016 941.196C143.57 940.29 145.366 939.837 147.405 939.837C149.444 939.837 151.256 940.29 152.842 941.196C154.396 942.102 155.609 943.413 156.483 945.128C157.357 946.811 157.794 948.785 157.794 951.051C157.794 953.316 157.357 955.307 156.483 957.022C155.609 958.737 154.396 960.064 152.842 961.003C151.256 961.909 149.444 962.362 147.405 962.362Z" fill="url(#paint34_linear_1_808)"/>
<path d="M45.2648 176.241L49.6067 171.039C50.8082 171.339 52.037 171.49 53.2932 171.49C55.9693 171.49 58.4269 170.862 60.6661 169.605C62.9053 168.349 64.6803 166.615 65.991 164.403C67.3018 162.164 67.9571 159.638 67.9571 156.826C67.9571 154.04 67.3018 151.542 65.991 149.33C64.6803 147.091 62.9053 145.343 60.6661 144.087C58.4269 142.831 55.9693 142.203 53.2932 142.203C50.5897 142.203 48.1321 142.831 45.9202 144.087C43.681 145.343 41.9197 147.091 40.6362 149.33C39.3255 151.542 38.6701 154.04 38.6701 156.826C38.6701 159.365 39.2163 161.686 40.3086 163.789C41.3735 165.864 42.8345 167.557 44.6914 168.868L38.1376 176.241H45.2648ZM62.0588 156.826C62.0588 158.737 61.6901 160.417 60.9528 161.864C60.2155 163.311 59.1915 164.431 57.8808 165.223C56.5427 165.987 55.0135 166.369 53.2932 166.369C51.5728 166.369 50.0572 165.987 48.7465 165.223C47.4358 164.431 46.4117 163.311 45.6744 161.864C44.9371 160.417 44.5685 158.737 44.5685 156.826C44.5685 154.914 44.9371 153.248 45.6744 151.828C46.4117 150.381 47.4358 149.275 48.7465 148.511C50.0572 147.746 51.5728 147.364 53.2932 147.364C55.0135 147.364 56.5427 147.746 57.8808 148.511C59.1915 149.275 60.2155 150.381 60.9528 151.828C61.6901 153.248 62.0588 154.914 62.0588 156.826Z" fill="url(#paint35_linear_1_808)"/>
<path d="M133.468 297.115V321.692C133.468 324.385 132.766 326.452 131.363 327.893C129.96 329.296 127.988 329.998 125.447 329.998C122.868 329.998 120.876 329.296 119.473 327.893C118.07 326.452 117.368 324.385 117.368 321.692V297.115H109.347V321.635C109.347 325.011 110.086 327.874 111.565 330.225C113.007 332.539 114.96 334.284 117.425 335.459C119.852 336.635 122.564 337.223 125.56 337.223C128.519 337.223 131.211 336.635 133.639 335.459C136.028 334.284 137.924 332.539 139.328 330.225C140.731 327.874 141.433 325.011 141.433 321.635V297.115H133.468Z" fill="url(#paint36_linear_1_808)"/>
<path d="M189.505 370.859C189.505 372.983 188.993 374.974 187.969 376.833C186.983 378.691 185.409 380.189 183.247 381.327C181.123 382.465 178.43 383.034 175.168 383.034H168.512V398.28H160.548V358.571H175.168C178.24 358.571 180.857 359.102 183.019 360.164C185.181 361.226 186.793 362.686 187.855 364.544C188.955 366.403 189.505 368.508 189.505 370.859ZM174.827 376.605C177.027 376.605 178.658 376.112 179.72 375.126C180.782 374.102 181.313 372.68 181.313 370.859C181.313 366.991 179.151 365.056 174.827 365.056H168.512V376.605H174.827Z" fill="url(#paint37_linear_1_808)"/>
<path d="M238.032 374.876V414.585H245.997V374.876H238.032Z" fill="url(#paint38_linear_1_808)"/>
<path d="M112.02 393.688L125.446 419.573V433.398H133.411V419.573L146.894 393.688H137.905L129.372 411.836L120.895 393.688H112.02Z" fill="url(#paint39_linear_1_808)"/>
<path d="M117.822 482.109L128.916 521.818H138.303L145.755 493.544L153.549 521.818L162.879 521.875L173.575 482.109H165.041L158.044 512.944L149.965 482.109H141.09L133.467 512.773L126.413 482.109H117.822Z" fill="url(#paint40_linear_1_808)"/>
<path d="M251.34 613.602L260.954 648.017H269.09L275.548 623.513L282.303 648.017L290.389 648.066L299.659 613.602H292.263L286.198 640.325L279.197 613.602H271.506L264.899 640.178L258.785 613.602H251.34Z" fill="url(#paint41_linear_1_808)"/>
<path d="M366.145 699.892H350.663V705.71H374.132V700.385L358.749 677.113H374.132V671.295H350.663V676.62L366.145 699.892Z" fill="url(#paint42_linear_1_808)"/>
<path d="M196.776 718.098L203.61 709.91C205.502 710.383 207.436 710.619 209.413 710.619C213.626 710.619 217.494 709.631 221.019 707.653C224.543 705.676 227.337 702.947 229.401 699.465C231.464 695.94 232.495 691.964 232.495 687.537C232.495 683.153 231.464 679.22 229.401 675.738C227.337 672.213 224.543 669.462 221.019 667.485C217.494 665.508 213.626 664.519 209.413 664.519C205.158 664.519 201.289 665.508 197.808 667.485C194.283 669.462 191.511 672.213 189.49 675.738C187.427 679.22 186.396 683.153 186.396 687.537C186.396 691.534 187.255 695.188 188.975 698.498C190.651 701.765 192.951 704.43 195.873 706.493L185.557 718.098H196.776ZM223.211 687.537C223.211 690.546 222.631 693.189 221.47 695.467C220.31 697.746 218.698 699.508 216.635 700.754C214.528 701.958 212.121 702.56 209.413 702.56C206.705 702.56 204.32 701.958 202.256 700.754C200.193 699.508 198.581 697.746 197.421 695.467C196.26 693.189 195.68 690.546 195.68 687.537C195.68 684.528 196.26 681.906 197.421 679.671C198.581 677.393 200.193 675.652 202.256 674.448C204.32 673.245 206.705 672.643 209.413 672.643C212.121 672.643 214.528 673.245 216.635 674.448C218.698 675.652 220.31 677.393 221.47 679.671C222.631 681.906 223.211 684.528 223.211 687.537Z" fill="url(#paint43_linear_1_808)"/>
<path d="M344.648 781.664V816.079H351.551V801.435H366.293V816.079H373.196V781.664H366.293V795.815H351.551V781.664H344.648Z" fill="url(#paint44_linear_1_808)"/>
<path d="M266.259 862.196L275.37 846.103H279.275V862.196H287.559V820.899H272.057C268.862 820.899 266.141 821.471 263.892 822.614C261.644 823.719 259.968 825.237 258.863 827.17C257.719 829.064 257.147 831.193 257.147 833.56C257.147 836.282 257.936 838.747 259.514 840.956C261.092 843.125 263.439 844.624 266.555 845.452L256.674 862.196H266.259ZM279.275 839.891H272.353C270.105 839.891 268.428 839.358 267.324 838.293C266.219 837.189 265.667 835.67 265.667 833.738C265.667 831.844 266.219 830.385 267.324 829.359C268.428 828.294 270.105 827.762 272.353 827.762H279.275V839.891Z" fill="url(#paint45_linear_1_808)"/>
<path d="M291.229 925.624V966.921H299.512V949.349H317.203V966.921H325.486V925.624H317.203V942.604H299.512V925.624H291.229Z" fill="url(#paint46_linear_1_808)"/>
<path d="M187.898 462.315V497.26H194.907V482.391H209.876V497.26H216.885V462.315H209.876V476.684H194.907V462.315H187.898Z" fill="url(#paint47_linear_1_808)"/>
<path d="M277.672 440.367V464.898C277.672 468.302 278.657 470.956 280.626 472.858C282.595 474.727 285.232 475.662 288.536 475.662C291.873 475.662 294.577 474.694 296.646 472.758C298.682 470.822 299.7 468.119 299.7 464.648H292.691C292.658 466.15 292.307 467.318 291.64 468.152C290.939 468.987 289.938 469.404 288.636 469.404C287.368 469.404 286.4 469.003 285.732 468.202C285.065 467.401 284.731 466.3 284.731 464.898V440.367H277.672Z" fill="url(#paint48_linear_1_808)"/>
<path d="M365.37 528.854H379.287L381.59 535.512H388.949L376.384 500.518H368.223L355.657 535.512H363.067L365.37 528.854ZM367.272 523.247L372.328 508.628L377.385 523.247H367.272Z" fill="url(#paint49_linear_1_808)"/>
<path d="M203.043 544.605V572.786C203.043 575.874 202.238 578.244 200.629 579.897C199.02 581.506 196.758 582.31 193.845 582.31C190.887 582.31 188.604 581.506 186.995 579.897C185.386 578.244 184.581 575.874 184.581 572.786V544.605H175.383V572.721C175.383 576.591 176.231 579.875 177.928 582.571C179.58 585.224 181.82 587.225 184.647 588.573C187.43 589.921 190.539 590.595 193.975 590.595C197.367 590.595 200.455 589.921 203.238 588.573C205.978 587.225 208.153 585.224 209.762 582.571C211.371 579.875 212.175 576.591 212.175 572.721V544.605H203.043Z" fill="url(#paint50_linear_1_808)"/>
<path d="M311.086 301.443C314.159 301.443 316.98 300.722 319.551 299.28C322.122 297.837 324.16 295.847 325.665 293.307C327.17 290.736 327.922 287.836 327.922 284.607C327.922 281.409 327.17 278.54 325.665 276C324.16 273.429 322.122 271.423 319.551 269.98C316.98 268.538 314.159 267.817 311.086 267.817C307.982 267.817 305.16 268.538 302.621 269.98C300.05 271.423 298.028 273.429 296.554 276C295.049 278.54 294.297 281.409 294.297 284.607C294.297 287.836 295.049 290.736 296.554 293.307C298.028 295.847 300.05 297.837 302.621 299.28C305.192 300.722 308.013 301.443 311.086 301.443ZM311.086 295.564C309.111 295.564 307.371 295.125 305.866 294.248C304.361 293.338 303.185 292.053 302.339 290.391C301.492 288.729 301.069 286.801 301.069 284.607C301.069 282.412 301.492 280.499 302.339 278.869C303.185 277.207 304.361 275.938 305.866 275.06C307.371 274.182 309.111 273.743 311.086 273.743C313.061 273.743 314.817 274.182 316.353 275.06C317.858 275.938 319.034 277.207 319.881 278.869C320.727 280.499 321.15 282.412 321.15 284.607C321.15 286.801 320.727 288.729 319.881 290.391C319.034 292.053 317.858 293.338 316.353 294.248C314.817 295.125 313.061 295.564 311.086 295.564Z" fill="url(#paint51_linear_1_808)"/>
<path d="M209.19 303.959V314.313H223.094V320.88H209.19V331.826H224.869V338.571H200.907V297.214H224.869V303.959H209.19Z" fill="url(#paint52_linear_1_808)"/>
<path d="M76.593 191.155V196.469H90.2785V204.887H79.791V210.107H90.2785V223.981H96.8626V191.155H76.593Z" fill="url(#paint53_linear_1_808)"/>
<path d="M8.63638 351.534C7.88391 350.154 6.84927 349.104 5.53245 348.383C4.21564 347.662 2.67935 347.301 0.923597 347.301C-1.02027 347.301 -2.74468 347.74 -4.24961 348.618C-5.75454 349.496 -6.93027 350.75 -7.77679 352.38C-8.62332 354.011 -9.04658 355.892 -9.04658 358.024C-9.04658 360.219 -8.62332 362.131 -7.77679 363.761C-6.89892 365.392 -5.69184 366.646 -4.15555 367.524C-2.61927 368.402 -0.832158 368.841 1.20577 368.841C3.71399 368.841 5.7676 368.182 7.36659 366.865C8.96558 365.517 10.0159 363.652 10.5175 361.269H-0.769452V356.237H17.0076V361.974C16.5686 364.263 15.628 366.379 14.1858 368.323C12.7436 370.267 10.8781 371.835 8.58935 373.026C6.33195 374.186 3.79237 374.766 0.970626 374.766C-2.196 374.766 -5.06478 374.061 -7.63571 372.65C-10.1753 371.208 -12.1819 369.217 -13.6554 366.677C-15.0977 364.138 -15.8188 361.253 -15.8188 358.024C-15.8188 354.795 -15.0977 351.91 -13.6554 349.371C-12.1819 346.8 -10.1753 344.809 -7.63571 343.398C-5.06478 341.956 -2.21168 341.235 0.923597 341.235C4.62322 341.235 7.83688 342.144 10.5646 343.962C13.2923 345.749 15.1734 348.273 16.2081 351.534H8.63638Z" fill="url(#paint54_linear_1_808)"/>
<path d="M131.935 587.494H142.751V592.714H125.351V559.887H131.935V587.494Z" fill="url(#paint55_linear_1_808)"/>
<path d="M86.0025 879.707C89.4513 879.707 92.4769 880.381 95.0791 881.729C97.7128 883.077 99.735 885.005 101.146 887.513C102.588 889.99 103.309 892.875 103.309 896.167C103.309 899.459 102.588 902.343 101.146 904.82C99.735 907.266 97.7128 909.163 95.0791 910.511C92.4769 911.859 89.4513 912.533 86.0025 912.533H74.5274V879.707H86.0025ZM85.7674 906.936C89.2162 906.936 91.8812 905.996 93.7623 904.115C95.6435 902.234 96.5841 899.584 96.5841 896.167C96.5841 892.749 95.6435 890.084 93.7623 888.172C91.8812 886.228 89.2162 885.256 85.7674 885.256H81.1115V906.936H85.7674Z" fill="url(#paint56_linear_1_808)"/>
<path d="M-98.4892 142.381V270.51H-72.7901V215.991H-17.904V270.51H7.79511V142.381H-17.904V195.065H-72.7901V142.381H-98.4892Z" fill="url(#paint57_linear_1_808)"/>
<path d="M0.339053 271.9V372.998C0.339053 387.028 -3.7186 397.963 -11.8339 405.803C-19.9492 413.506 -30.8155 417.357 -44.4327 417.357C-58.1875 417.357 -69.3288 413.368 -77.8568 405.39C-86.2472 397.412 -90.4424 386.271 -90.4424 371.966H-61.5574C-61.4198 378.156 -59.9756 382.97 -57.2246 386.409C-54.3361 389.847 -50.2097 391.567 -44.8453 391.567C-39.6185 391.567 -35.6296 389.916 -32.8787 386.615C-30.1277 383.314 -28.7523 378.775 -28.7523 372.998V271.9H0.339053Z" fill="url(#paint58_linear_1_808)"/>
<path d="M-64.7433 740.424V780.025H0.439052V985.034H49.5011V780.025H114.683V740.424H-64.7433Z" fill="url(#paint59_linear_1_808)"/>
<path d="M29.9518 908.833L76.8535 999.258V1047.55H104.677V999.258L151.777 908.833H120.377L90.5663 972.23L60.9546 908.833H29.9518Z" fill="url(#paint60_linear_1_808)"/>
<path d="M66.2813 899.556L96.2905 852.853L123.517 899.556H154.918L111.196 829.601L155.514 760.839H123.517L93.5082 807.343L66.4801 760.839H35.0798L78.603 830.595L34.2848 899.556H66.2813Z" fill="url(#paint61_linear_1_808)"/>
<path d="M-104.382 660.087H-4.85025L11.6191 707.705H64.2492L-25.6159 457.443H-83.9745L-173.84 707.705H-120.851L-104.382 660.087ZM-90.777 619.988L-54.6162 515.444L-18.4553 619.988H-90.777Z" fill="url(#paint62_linear_1_808)"/>
<path d="M72.9153 383.907V458.986C72.9153 469.406 69.9019 477.526 63.8751 483.349C57.8483 489.069 49.7785 491.93 39.6657 491.93C29.4508 491.93 21.1767 488.967 14.8434 483.043C8.61232 477.118 5.49676 468.844 5.49676 458.22H26.9481C27.0503 462.817 28.1228 466.392 30.1658 468.946C32.311 471.5 35.3754 472.777 39.3593 472.777C43.2409 472.777 46.2033 471.551 48.2463 469.099C50.2892 466.648 51.3107 463.277 51.3107 458.986V383.907H72.9153Z" fill="url(#paint63_linear_1_808)"/>
</g>
<defs>
<filter id="filter0_f_1_808" x="-939.94" y="-436.759" width="1375.22" height="1375.22" filterUnits="userSpaceOnUse" color-interpolation-filters="sRGB">
<feFlood flood-opacity="0" result="BackgroundImageFix"/>
<feBlend mode="normal" in="SourceGraphic" in2="BackgroundImageFix" result="shape"/>
<feGaussianBlur stdDeviation="229.077" result="effect1_foregroundBlur_1_808"/>
</filter>
<filter id="filter1_f_1_808" x="37.0524" y="-67.3531" width="1375.22" height="1375.22" filterUnits="userSpaceOnUse" color-interpolation-filters="sRGB">
<feFlood flood-opacity="0" result="BackgroundImageFix"/>
<feBlend mode="normal" in="SourceGraphic" in2="BackgroundImageFix" result="shape"/>
<feGaussianBlur stdDeviation="229.077" result="effect1_foregroundBlur_1_808"/>
</filter>
<linearGradient id="paint0_linear_1_808" x1="779.657" y1="738.097" x2="1243.63" y2="738.097" gradientUnits="userSpaceOnUse">
<stop stop-color="#B94C97"/>
<stop offset="0.520833" stop-color="#EA5251" stop-opacity="0.49"/>
<stop offset="1" stop-color="#EA5251" stop-opacity="0"/>
</linearGradient>
<linearGradient id="paint1_linear_1_808" x1="157.754" y1="171.981" x2="157.754" y2="230.301" gradientUnits="userSpaceOnUse">
<stop stop-color="#B94C97"/>
<stop offset="1" stop-color="#F2DAEC"/>
</linearGradient>
<linearGradient id="paint2_linear_1_808" x1="372.798" y1="158.812" x2="372.798" y2="217.132" gradientUnits="userSpaceOnUse">
<stop stop-color="#B94C97"/>
<stop offset="1" stop-color="#F2DAEC"/>
</linearGradient>
<linearGradient id="paint3_linear_1_808" x1="383.039" y1="594.017" x2="383.039" y2="655.472" gradientUnits="userSpaceOnUse">
<stop stop-color="#B94C97"/>
<stop offset="1" stop-color="#F2DAEC"/>
</linearGradient>
<linearGradient id="paint4_linear_1_808" x1="296.188" y1="651.71" x2="296.188" y2="713.165" gradientUnits="userSpaceOnUse">
<stop stop-color="#B94C97"/>
<stop offset="1" stop-color="#F2DAEC"/>
</linearGradient>
<linearGradient id="paint5_linear_1_808" x1="299.601" y1="762.079" x2="299.601" y2="823.534" gradientUnits="userSpaceOnUse">
<stop stop-color="#B94C97"/>
<stop offset="1" stop-color="#F2DAEC"/>
</linearGradient>
<linearGradient id="paint6_linear_1_808" x1="385.694" y1="797.196" x2="385.694" y2="870.567" gradientUnits="userSpaceOnUse">
<stop stop-color="#B94C97"/>
<stop offset="1" stop-color="#F2DAEC"/>
</linearGradient>
<linearGradient id="paint7_linear_1_808" x1="347.009" y1="901.921" x2="347.009" y2="975.292" gradientUnits="userSpaceOnUse">
<stop stop-color="#B94C97"/>
<stop offset="1" stop-color="#F2DAEC"/>
</linearGradient>
<linearGradient id="paint8_linear_1_808" x1="371.281" y1="420.311" x2="371.281" y2="482.394" gradientUnits="userSpaceOnUse">
<stop stop-color="#B94C97"/>
<stop offset="1" stop-color="#F2DAEC"/>
</linearGradient>
<linearGradient id="paint9_linear_1_808" x1="286.325" y1="480.512" x2="286.325" y2="542.595" gradientUnits="userSpaceOnUse">
<stop stop-color="#B94C97"/>
<stop offset="1" stop-color="#F2DAEC"/>
</linearGradient>
<linearGradient id="paint10_linear_1_808" x1="347.388" y1="249.114" x2="347.388" y2="307.434" gradientUnits="userSpaceOnUse">
<stop stop-color="#B94C97"/>
<stop offset="1" stop-color="#F2DAEC"/>
</linearGradient>
<linearGradient id="paint11_linear_1_808" x1="244.606" y1="322.484" x2="244.606" y2="380.804" gradientUnits="userSpaceOnUse">
<stop stop-color="#B94C97"/>
<stop offset="1" stop-color="#F2DAEC"/>
</linearGradient>
<linearGradient id="paint12_linear_1_808" x1="112.242" y1="582.102" x2="112.242" y2="640.422" gradientUnits="userSpaceOnUse">
<stop stop-color="#B94C97"/>
<stop offset="1" stop-color="#F2DAEC"/>
</linearGradient>
<linearGradient id="paint13_linear_1_808" x1="156.997" y1="860.533" x2="156.997" y2="918.853" gradientUnits="userSpaceOnUse">
<stop stop-color="#B94C97"/>
<stop offset="1" stop-color="#F2DAEC"/>
</linearGradient>
<linearGradient id="paint14_linear_1_808" x1="317.135" y1="171.981" x2="317.135" y2="230.301" gradientUnits="userSpaceOnUse">
<stop stop-color="#B94C97"/>
<stop offset="1" stop-color="#F2DAEC"/>
</linearGradient>
<linearGradient id="paint15_linear_1_808" x1="271.624" y1="540.714" x2="271.624" y2="599.034" gradientUnits="userSpaceOnUse">
<stop stop-color="#B94C97"/>
<stop offset="1" stop-color="#F2DAEC"/>
</linearGradient>
<linearGradient id="paint16_linear_1_808" x1="316.376" y1="860.533" x2="316.376" y2="918.853" gradientUnits="userSpaceOnUse">
<stop stop-color="#B94C97"/>
<stop offset="1" stop-color="#F2DAEC"/>
</linearGradient>
<linearGradient id="paint17_linear_1_808" x1="380.094" y1="599.034" x2="380.094" y2="1033.61" gradientUnits="userSpaceOnUse">
<stop stop-color="#B94C97"/>
<stop offset="1" stop-color="#F2DAEC"/>
</linearGradient>
<linearGradient id="paint18_linear_1_808" x1="314.101" y1="828.551" x2="314.101" y2="1075" gradientUnits="userSpaceOnUse">
<stop stop-color="#B94C97"/>
<stop offset="1" stop-color="#F2DAEC"/>
</linearGradient>
<linearGradient id="paint19_linear_1_808" x1="309.929" y1="680.556" x2="309.929" y2="927.005" gradientUnits="userSpaceOnUse">
<stop stop-color="#B94C97"/>
<stop offset="1" stop-color="#F2DAEC"/>
</linearGradient>
<linearGradient id="paint20_linear_1_808" x1="459.361" y1="313.705" x2="459.361" y2="757.689" gradientUnits="userSpaceOnUse">
<stop stop-color="#B94C97"/>
<stop offset="1" stop-color="#F2DAEC"/>
</linearGradient>
<linearGradient id="paint21_linear_1_808" x1="360.752" y1="321.857" x2="360.752" y2="511.867" gradientUnits="userSpaceOnUse">
<stop stop-color="#B94C97"/>
<stop offset="1" stop-color="#F2DAEC"/>
</linearGradient>
<linearGradient id="paint22_linear_1_808" x1="285.573" y1="158.812" x2="285.573" y2="217.132" gradientUnits="userSpaceOnUse">
<stop stop-color="#B94C97"/>
<stop offset="1" stop-color="#F2DAEC"/>
</linearGradient>
<linearGradient id="paint23_linear_1_808" x1="185.067" y1="120.559" x2="185.067" y2="197.692" gradientUnits="userSpaceOnUse">
<stop stop-color="#B94C97"/>
<stop offset="1" stop-color="#F2DAEC"/>
</linearGradient>
<linearGradient id="paint24_linear_1_808" x1="197.203" y1="185.777" x2="197.203" y2="262.91" gradientUnits="userSpaceOnUse">
<stop stop-color="#B94C97"/>
<stop offset="1" stop-color="#F2DAEC"/>
</linearGradient>
<linearGradient id="paint25_linear_1_808" x1="116.419" y1="131.22" x2="116.419" y2="266.673" gradientUnits="userSpaceOnUse">
<stop stop-color="#B94C97"/>
<stop offset="1" stop-color="#F2DAEC"/>
</linearGradient>
<linearGradient id="paint26_linear_1_808" x1="69.3911" y1="279.842" x2="69.3911" y2="405.888" gradientUnits="userSpaceOnUse">
<stop stop-color="#B94C97"/>
<stop offset="1" stop-color="#F2DAEC"/>
</linearGradient>
<linearGradient id="paint27_linear_1_808" x1="71.6664" y1="365.754" x2="71.6664" y2="444.768" gradientUnits="userSpaceOnUse">
<stop stop-color="#B94C97"/>
<stop offset="1" stop-color="#F2DAEC"/>
</linearGradient>
<linearGradient id="paint28_linear_1_808" x1="80.7685" y1="498.698" x2="80.7685" y2="549.493" gradientUnits="userSpaceOnUse">
<stop stop-color="#B94C97"/>
<stop offset="1" stop-color="#F2DAEC"/>
</linearGradient>
<linearGradient id="paint29_linear_1_808" x1="87.9753" y1="590.254" x2="87.9753" y2="716.301" gradientUnits="userSpaceOnUse">
<stop stop-color="#B94C97"/>
<stop offset="1" stop-color="#F2DAEC"/>
</linearGradient>
<linearGradient id="paint30_linear_1_808" x1="94.0426" y1="549.493" x2="94.0426" y2="609.694" gradientUnits="userSpaceOnUse">
<stop stop-color="#B94C97"/>
<stop offset="1" stop-color="#F2DAEC"/>
</linearGradient>
<linearGradient id="paint31_linear_1_808" x1="127.418" y1="595.271" x2="127.418" y2="655.472" gradientUnits="userSpaceOnUse">
<stop stop-color="#B94C97"/>
<stop offset="1" stop-color="#F2DAEC"/>
</linearGradient>
<linearGradient id="paint32_linear_1_808" x1="171.413" y1="709.403" x2="171.413" y2="769.604" gradientUnits="userSpaceOnUse">
<stop stop-color="#B94C97"/>
<stop offset="1" stop-color="#F2DAEC"/>
</linearGradient>
<linearGradient id="paint33_linear_1_808" x1="208.96" y1="866.804" x2="208.96" y2="927.005" gradientUnits="userSpaceOnUse">
<stop stop-color="#B94C97"/>
<stop offset="1" stop-color="#F2DAEC"/>
</linearGradient>
<linearGradient id="paint34_linear_1_808" x1="147.141" y1="915.09" x2="147.141" y2="975.292" gradientUnits="userSpaceOnUse">
<stop stop-color="#B94C97"/>
<stop offset="1" stop-color="#F2DAEC"/>
</linearGradient>
<linearGradient id="paint35_linear_1_808" x1="53.0823" y1="126.203" x2="53.0823" y2="176.998" gradientUnits="userSpaceOnUse">
<stop stop-color="#B94C97"/>
<stop offset="1" stop-color="#F2DAEC"/>
</linearGradient>
<linearGradient id="paint36_linear_1_808" x1="125.143" y1="274.825" x2="125.143" y2="345.687" gradientUnits="userSpaceOnUse">
<stop stop-color="#B94C97"/>
<stop offset="1" stop-color="#F2DAEC"/>
</linearGradient>
<linearGradient id="paint37_linear_1_808" x1="174.069" y1="336.28" x2="174.069" y2="407.142" gradientUnits="userSpaceOnUse">
<stop stop-color="#B94C97"/>
<stop offset="1" stop-color="#F2DAEC"/>
</linearGradient>
<linearGradient id="paint38_linear_1_808" x1="241.957" y1="352.585" x2="241.957" y2="423.447" gradientUnits="userSpaceOnUse">
<stop stop-color="#B94C97"/>
<stop offset="1" stop-color="#F2DAEC"/>
</linearGradient>
<linearGradient id="paint39_linear_1_808" x1="129.315" y1="371.398" x2="129.315" y2="442.26" gradientUnits="userSpaceOnUse">
<stop stop-color="#B94C97"/>
<stop offset="1" stop-color="#F2DAEC"/>
</linearGradient>
<linearGradient id="paint40_linear_1_808" x1="145.623" y1="459.818" x2="145.623" y2="530.68" gradientUnits="userSpaceOnUse">
<stop stop-color="#B94C97"/>
<stop offset="1" stop-color="#F2DAEC"/>
</linearGradient>
<linearGradient id="paint41_linear_1_808" x1="275.332" y1="594.017" x2="275.332" y2="655.472" gradientUnits="userSpaceOnUse">
<stop stop-color="#B94C97"/>
<stop offset="1" stop-color="#F2DAEC"/>
</linearGradient>
<linearGradient id="paint42_linear_1_808" x1="362.185" y1="651.71" x2="362.185" y2="713.165" gradientUnits="userSpaceOnUse">
<stop stop-color="#B94C97"/>
<stop offset="1" stop-color="#F2DAEC"/>
</linearGradient>
<linearGradient id="paint43_linear_1_808" x1="209.341" y1="639.168" x2="209.341" y2="719.436" gradientUnits="userSpaceOnUse">
<stop stop-color="#B94C97"/>
<stop offset="1" stop-color="#F2DAEC"/>
</linearGradient>
<linearGradient id="paint44_linear_1_808" x1="358.772" y1="762.079" x2="358.772" y2="823.534" gradientUnits="userSpaceOnUse">
<stop stop-color="#B94C97"/>
<stop offset="1" stop-color="#F2DAEC"/>
</linearGradient>
<linearGradient id="paint45_linear_1_808" x1="272.678" y1="797.196" x2="272.678" y2="870.567" gradientUnits="userSpaceOnUse">
<stop stop-color="#B94C97"/>
<stop offset="1" stop-color="#F2DAEC"/>
</linearGradient>
<linearGradient id="paint46_linear_1_808" x1="311.364" y1="901.921" x2="311.364" y2="975.292" gradientUnits="userSpaceOnUse">
<stop stop-color="#B94C97"/>
<stop offset="1" stop-color="#F2DAEC"/>
</linearGradient>
<linearGradient id="paint47_linear_1_808" x1="202.134" y1="442.26" x2="202.134" y2="504.342" gradientUnits="userSpaceOnUse">
<stop stop-color="#B94C97"/>
<stop offset="1" stop-color="#F2DAEC"/>
</linearGradient>
<linearGradient id="paint48_linear_1_808" x1="287.09" y1="420.311" x2="287.09" y2="482.394" gradientUnits="userSpaceOnUse">
<stop stop-color="#B94C97"/>
<stop offset="1" stop-color="#F2DAEC"/>
</linearGradient>
<linearGradient id="paint49_linear_1_808" x1="372.046" y1="480.512" x2="372.046" y2="542.595" gradientUnits="userSpaceOnUse">
<stop stop-color="#B94C97"/>
<stop offset="1" stop-color="#F2DAEC"/>
</linearGradient>
<linearGradient id="paint50_linear_1_808" x1="193.79" y1="518.138" x2="193.79" y2="599.034" gradientUnits="userSpaceOnUse">
<stop stop-color="#B94C97"/>
<stop offset="1" stop-color="#F2DAEC"/>
</linearGradient>
<linearGradient id="paint51_linear_1_808" x1="310.984" y1="249.114" x2="310.984" y2="307.434" gradientUnits="userSpaceOnUse">
<stop stop-color="#B94C97"/>
<stop offset="1" stop-color="#F2DAEC"/>
</linearGradient>
<linearGradient id="paint52_linear_1_808" x1="212.754" y1="273.571" x2="212.754" y2="346.941" gradientUnits="userSpaceOnUse">
<stop stop-color="#B94C97"/>
<stop offset="1" stop-color="#F2DAEC"/>
</linearGradient>
<linearGradient id="paint53_linear_1_808" x1="87.5918" y1="171.981" x2="87.5918" y2="230.301" gradientUnits="userSpaceOnUse">
<stop stop-color="#B94C97"/>
<stop offset="1" stop-color="#F2DAEC"/>
</linearGradient>
<linearGradient id="paint54_linear_1_808" x1="0.740032" y1="322.484" x2="0.740032" y2="380.804" gradientUnits="userSpaceOnUse">
<stop stop-color="#B94C97"/>
<stop offset="1" stop-color="#F2DAEC"/>
</linearGradient>
<linearGradient id="paint55_linear_1_808" x1="133.104" y1="540.714" x2="133.104" y2="599.034" gradientUnits="userSpaceOnUse">
<stop stop-color="#B94C97"/>
<stop offset="1" stop-color="#F2DAEC"/>
</linearGradient>
<linearGradient id="paint56_linear_1_808" x1="88.3494" y1="860.533" x2="88.3494" y2="918.853" gradientUnits="userSpaceOnUse">
<stop stop-color="#B94C97"/>
<stop offset="1" stop-color="#F2DAEC"/>
</linearGradient>
<linearGradient id="paint57_linear_1_808" x1="-45.5314" y1="68.51" x2="-45.5314" y2="296.146" gradientUnits="userSpaceOnUse">
<stop stop-color="#B94C97"/>
<stop offset="1" stop-color="#F2DAEC"/>
</linearGradient>
<linearGradient id="paint58_linear_1_808" x1="-38.7042" y1="188.913" x2="-38.7042" y2="444.768" gradientUnits="userSpaceOnUse">
<stop stop-color="#B94C97"/>
<stop offset="1" stop-color="#F2DAEC"/>
</linearGradient>
<linearGradient id="paint59_linear_1_808" x1="24.6333" y1="599.034" x2="24.6333" y2="1033.61" gradientUnits="userSpaceOnUse">
<stop stop-color="#B94C97"/>
<stop offset="1" stop-color="#F2DAEC"/>
</linearGradient>
<linearGradient id="paint60_linear_1_808" x1="90.6254" y1="828.551" x2="90.6254" y2="1075" gradientUnits="userSpaceOnUse">
<stop stop-color="#B94C97"/>
<stop offset="1" stop-color="#F2DAEC"/>
</linearGradient>
<linearGradient id="paint61_linear_1_808" x1="94.7977" y1="680.556" x2="94.7977" y2="927.005" gradientUnits="userSpaceOnUse">
<stop stop-color="#B94C97"/>
<stop offset="1" stop-color="#F2DAEC"/>
</linearGradient>
<linearGradient id="paint62_linear_1_808" x1="-54.6344" y1="313.705" x2="-54.6344" y2="757.689" gradientUnits="userSpaceOnUse">
<stop stop-color="#B94C97"/>
<stop offset="1" stop-color="#F2DAEC"/>
</linearGradient>
<linearGradient id="paint63_linear_1_808" x1="43.9757" y1="321.857" x2="43.9757" y2="511.867" gradientUnits="userSpaceOnUse">
<stop stop-color="#B94C97"/>
<stop offset="1" stop-color="#F2DAEC"/>
</linearGradient>
</defs>
</svg>
