<svg xmlns="http://www.w3.org/2000/svg" width="34" height="34" viewBox="0 0 34 34" fill="none">
  <g clip-path="url(#clip0_1193_343)">
    <path d="M22.6452 15.9197C22.6452 15.9197 22.5852 16.7691 21.3693 17.086C22.5838 17.4031 22.6452 18.2526 22.6452 18.2526C22.815 17.1626 23.921 17.086 23.921 17.086C23.921 17.086 22.815 17.0096 22.6452 15.9197Z" fill="white"/>
    <path d="M32.1911 10.6606C31.9618 12.0346 31.7278 13.4925 30.6595 14.3408C30.2325 14.68 29.7095 14.8806 29.2812 15.2193C27.9774 16.2498 27.9071 18.1541 27.8363 19.8133C27.7657 21.4725 27.3777 23.4323 25.8505 24.0824C23.9932 24.8766 21.4223 23.2385 20.003 24.6763C18.6635 26.0331 20.0169 28.5962 18.8917 30.1361C18.5182 30.6467 17.9297 30.9482 17.3635 31.2313C16.4122 31.7067 15.3718 32.1807 14.3271 32.4581C15.4332 32.6986 16.5618 32.8202 17.6938 32.8206C26.4325 32.8206 33.5164 25.7367 33.5164 16.9982C33.5179 14.8167 33.0666 12.6587 32.1911 10.6606Z" fill="#EA5251"/>
    <path d="M17.6944 1.1792C8.95567 1.1792 1.87178 8.26304 1.87178 17.0018C1.87178 24.5847 7.20735 30.9184 14.3281 32.4618C15.3728 32.1831 16.4126 31.7089 17.3646 31.2349C17.9304 30.9503 18.5188 30.6491 18.8922 30.1382C20.0175 28.5988 18.6639 26.0353 20.0037 24.6785C21.4228 23.2407 23.9932 24.8787 25.851 24.0847C27.3781 23.4322 27.7672 21.4727 27.837 19.8155C27.9066 18.1584 27.9777 16.2494 29.2816 15.2215C29.7099 14.8838 30.2331 14.6818 30.6599 14.3432C31.7281 13.4946 31.9623 12.0367 32.1915 10.6628C29.7461 5.07989 24.1777 1.1792 17.6944 1.1792ZM23.0453 17.2462C22.9544 19.2598 21.7399 21.0515 19.9033 21.8819C18.0665 22.7124 15.9191 22.4405 14.3473 21.1787C12.6677 20.2298 11.6293 18.45 11.6296 16.5209C11.6284 14.4607 12.8095 12.583 14.6669 11.692C16.5243 10.8011 18.7281 11.0554 20.334 12.346C22.0882 13.3384 23.1363 15.2325 23.0453 17.2462Z" fill="#5C1612"/>
    <path d="M12.3392 17.0017C12.3366 15.0952 13.3488 13.3314 14.9963 12.372C16.6435 11.4127 18.6771 11.4027 20.334 12.3458C18.762 11.0839 16.6145 10.812 14.7779 11.6425C12.9414 12.4728 11.7268 14.2646 11.6357 16.2783C11.5449 18.2919 12.5928 20.1861 14.3473 21.1785C13.7204 20.6778 13.2143 20.0423 12.8667 19.3192C12.519 18.5961 12.3387 17.804 12.3392 17.0017ZM32.1911 10.6606C32.0928 11.2607 31.9858 11.8741 31.8152 12.4482C32.1808 13.7749 32.3661 15.1449 32.3662 16.5211C32.3636 24.9895 25.5005 31.855 17.0314 31.855C16.7182 31.855 16.4078 31.8426 16.0991 31.8242C15.525 32.08 14.9329 32.2932 14.3275 32.462C15.4337 32.7026 16.5624 32.8241 17.6944 32.8247C26.433 32.8247 33.5168 25.7406 33.5168 17.002C33.5187 14.8193 33.0673 12.6599 32.1911 10.6606Z" fill="#A64342"/>
    <path d="M31.8152 12.4484C31.9863 11.8743 32.0913 11.2609 32.1911 10.6609C29.7461 5.07989 24.1777 1.1792 17.6944 1.1792C17.5354 1.1792 17.3784 1.18661 17.2203 1.19151C24.1953 1.27574 30.0465 6.01507 31.8152 12.4484ZM2.49942 21.4143C4.10406 26.9471 8.64619 31.2286 14.3256 32.4622C14.9309 32.2933 15.523 32.0802 16.097 31.8243C9.75119 31.4435 4.44746 27.2013 2.49942 21.4143Z" fill="#A64342"/>
    <path d="M24.2375 21.5863C24.1783 21.5397 24.1399 21.4717 24.1307 21.397C24.1215 21.3222 24.1423 21.2469 24.1884 21.1874L25.1134 20.0052C25.16 19.9459 25.2281 19.9075 25.3028 19.8984C25.3776 19.8892 25.4529 19.91 25.5124 19.9562C25.5716 20.0027 25.61 20.0708 25.6192 20.1455C25.6284 20.2203 25.6076 20.2957 25.5614 20.3551L24.636 21.5372C24.5895 21.5963 24.5215 21.6346 24.4468 21.6438C24.3722 21.653 24.2969 21.6323 24.2375 21.5863Z" fill="#F1E289"/>
    <path d="M15.9818 27.4924C15.9065 27.492 15.8344 27.462 15.7812 27.4088C15.728 27.3555 15.6979 27.2834 15.6976 27.2081V25.7046C15.6979 25.6293 15.7279 25.5572 15.7811 25.504C15.8344 25.4508 15.9065 25.4209 15.9818 25.4207C16.0571 25.4209 16.1292 25.4509 16.1824 25.5041C16.2356 25.5573 16.2657 25.6293 16.266 25.7046V27.2059C16.2662 27.2815 16.2365 27.3542 16.1833 27.4079C16.1299 27.4616 16.0575 27.4919 15.9818 27.4924Z" fill="#BBDBA0"/>
    <path d="M24.4505 10.3839C24.4452 10.4589 24.4104 10.5288 24.3538 10.5782C24.2972 10.6277 24.2233 10.6527 24.1482 10.6479L22.6505 10.5463C22.5754 10.5409 22.5055 10.506 22.4561 10.4493C22.4067 10.3925 22.3817 10.3185 22.3866 10.2434C22.3919 10.1684 22.4267 10.0986 22.4833 10.0492C22.5399 9.99971 22.6138 9.97471 22.6888 9.97961L24.1865 10.081C24.2616 10.0863 24.3316 10.1212 24.3811 10.178C24.4306 10.2347 24.4555 10.3088 24.4505 10.3839Z" fill="#F1E289"/>
    <path d="M19.2371 6.56916C19.1667 6.59558 19.0887 6.59308 19.0201 6.56219C18.9515 6.5313 18.898 6.47453 18.8711 6.40429L18.3392 4.9998C18.3128 4.92939 18.3153 4.85139 18.3461 4.78281C18.377 4.71422 18.4337 4.66061 18.5039 4.63366C18.5743 4.60721 18.6524 4.6097 18.721 4.6406C18.7896 4.6715 18.8432 4.7283 18.87 4.79858L19.4016 6.20244C19.428 6.2729 19.4256 6.35097 19.3948 6.41965C19.364 6.48833 19.3073 6.54207 19.2371 6.56916ZM26.6552 14.7257C26.6694 14.7996 26.6537 14.8761 26.6116 14.9385C26.5694 15.0008 26.5043 15.0439 26.4304 15.0583L24.9585 15.344C24.8846 15.358 24.8081 15.3422 24.7458 15.3001C24.6835 15.258 24.6403 15.193 24.6257 15.1192C24.6116 15.0453 24.6273 14.9689 24.6694 14.9065C24.7116 14.8442 24.7767 14.8011 24.8505 14.7866L26.3227 14.5009C26.3965 14.4868 26.473 14.5025 26.5353 14.5447C26.5977 14.5868 26.6408 14.6519 26.6552 14.7257Z" fill="#BC66A5"/>
    <path d="M28.645 10.7696C28.5889 10.8197 28.5154 10.8457 28.4403 10.8418C28.3652 10.838 28.2947 10.8046 28.2441 10.749L27.2386 9.63446C27.1884 9.57847 27.1624 9.50488 27.1663 9.42977C27.1702 9.35465 27.2036 9.28412 27.2593 9.23358C27.3153 9.18337 27.3889 9.15738 27.464 9.16127C27.5391 9.16517 27.6097 9.19864 27.6602 9.25437L28.6657 10.3661C28.6909 10.3939 28.7104 10.4265 28.723 10.4618C28.7356 10.4972 28.7411 10.5347 28.7391 10.5722C28.7372 10.6097 28.7279 10.6464 28.7117 10.6803C28.6956 10.7142 28.6729 10.7446 28.645 10.7696Z" fill="#A2C7E8"/>
    <path d="M7.22649 14.9225C7.15116 14.9223 7.07894 14.8924 7.02567 14.8391C6.97239 14.7858 6.9424 14.7136 6.94226 14.6383V13.1372C6.94247 13.0619 6.97248 12.9897 7.02574 12.9365C7.079 12.8832 7.15118 12.8532 7.22649 12.853C7.30176 12.8533 7.37386 12.8834 7.42709 12.9366C7.48031 12.9898 7.51036 13.0619 7.51068 13.1372V14.6383C7.51041 14.7136 7.48038 14.7857 7.42715 14.8389C7.37391 14.8922 7.30178 14.9222 7.22649 14.9225Z" fill="#F1E289"/>
    <path d="M7.12292 19.2206C7.11769 19.2957 7.08295 19.3656 7.0263 19.4151C6.96966 19.4645 6.89572 19.4896 6.82066 19.4847L5.32303 19.3832C5.24791 19.3779 5.17795 19.343 5.12846 19.2863C5.07897 19.2295 5.05398 19.1555 5.05896 19.0803C5.06424 19.0053 5.099 18.9354 5.15563 18.886C5.21226 18.8365 5.28617 18.8114 5.36122 18.8163L6.8588 18.9179C6.93391 18.9232 7.00388 18.958 7.05338 19.0147C7.10288 19.0715 7.12789 19.1455 7.12292 19.2206Z" fill="#BBDBA0"/>
    <path d="M10.3871 10.1656C10.4405 10.1127 10.5127 10.083 10.5879 10.083C10.6631 10.083 10.7352 10.1127 10.7887 10.1656L11.8521 11.227C11.9052 11.2804 11.935 11.3526 11.935 11.4279C11.935 11.5032 11.9052 11.5754 11.8521 11.6288C11.7986 11.6817 11.7265 11.7114 11.6513 11.7114C11.5761 11.7114 11.5039 11.6817 11.4505 11.6288L10.3872 10.5673C10.334 10.514 10.3042 10.4418 10.3042 10.3665C10.3042 10.2912 10.334 10.219 10.3871 10.1656Z" fill="#A2C7E8"/>
    <path d="M11.0367 6.77771C10.9993 6.71236 10.9893 6.63485 11.0088 6.56212C11.0283 6.48939 11.0759 6.42734 11.141 6.38953L12.4408 5.63923C12.5061 5.60182 12.5836 5.59179 12.6564 5.61132C12.7291 5.63085 12.7911 5.67836 12.8289 5.74348C12.8663 5.80878 12.8764 5.88622 12.8569 5.95891C12.8374 6.0316 12.79 6.09363 12.7249 6.13147L11.4249 6.88244C11.3595 6.91971 11.2819 6.92961 11.2093 6.91C11.1366 6.89038 11.0745 6.84283 11.0367 6.77771Z" fill="#BBDBA0"/>
    <path d="M8.55833 22.7675C8.52726 22.6991 8.52444 22.6212 8.55051 22.5507C8.57657 22.4802 8.6294 22.4229 8.69752 22.3912L10.0618 21.7646C10.1302 21.7335 10.2082 21.7306 10.2787 21.7567C10.3492 21.7828 10.4065 21.8356 10.4382 21.9038C10.4694 21.9723 10.4723 22.0504 10.4462 22.121C10.4201 22.1916 10.3671 22.2491 10.2988 22.2808L8.93464 22.9073C8.86615 22.9384 8.78817 22.9411 8.71769 22.9149C8.64721 22.8887 8.58993 22.8357 8.55833 22.7675Z" fill="#B94C97"/>
    <path d="M16.9108 33.3459C7.85253 33.3459 0.483093 25.9766 0.483093 16.9184C0.483093 14.7008 0.917462 12.5493 1.77413 10.5239C1.79003 10.4863 1.81318 10.4521 1.84227 10.4235C1.87136 10.3948 1.90581 10.3721 1.94366 10.3568C1.98151 10.3414 2.02201 10.3337 2.06285 10.334C2.1037 10.3343 2.14408 10.3426 2.1817 10.3585C2.25767 10.3907 2.31776 10.4517 2.34876 10.5281C2.37977 10.6045 2.37916 10.6902 2.34705 10.7662C1.523 12.7145 1.10511 14.7845 1.10511 16.9184C1.10511 25.6336 8.1955 32.7239 16.9108 32.7239C25.626 32.7239 32.7163 25.6336 32.7163 16.9184C32.7163 8.20307 25.626 1.11269 16.9108 1.11269C13.2338 1.11269 9.65286 2.40305 6.8276 4.74611C6.76411 4.79876 6.6823 4.82404 6.60018 4.81637C6.51806 4.80871 6.44234 4.76874 6.38969 4.70525C6.33704 4.64177 6.31176 4.55996 6.31942 4.47784C6.32708 4.39572 6.36706 4.32 6.43054 4.26735C9.36712 1.83197 13.0891 0.490723 16.9107 0.490723C25.9689 0.490723 33.3383 7.86016 33.3383 16.9184C33.3384 25.9765 25.969 33.3459 16.9108 33.3459Z" fill="black"/>
    <path d="M3.0991 8.9184C3.04401 8.91836 2.98993 8.90369 2.94238 8.87589C2.89483 8.84809 2.85551 8.80816 2.82845 8.76018C2.80139 8.7122 2.78757 8.6579 2.78838 8.60282C2.78919 8.54775 2.80462 8.49387 2.83308 8.44672C3.41361 7.48468 4.09081 6.58442 4.85416 5.75991C4.8819 5.72993 4.91527 5.70571 4.95237 5.68863C4.98947 5.67155 5.02957 5.66196 5.07038 5.66039C5.1112 5.65882 5.15192 5.6653 5.19022 5.67948C5.22853 5.69365 5.26366 5.71524 5.29362 5.743C5.32359 5.77074 5.34781 5.80411 5.36488 5.84121C5.38196 5.87831 5.39155 5.91841 5.39312 5.95922C5.3947 6.00003 5.38821 6.04075 5.37404 6.07906C5.35987 6.11736 5.33829 6.1525 5.31053 6.18246C4.57602 6.9759 3.92438 7.8422 3.36573 8.76793C3.33806 8.81389 3.29895 8.8519 3.25223 8.87827C3.2055 8.90464 3.15275 8.91846 3.0991 8.9184Z" fill="black"/>
    <path d="M6.44881 9.00419C6.38071 9.00425 6.3145 8.98184 6.26044 8.94042C6.22796 8.91565 6.20069 8.88473 6.18017 8.84941C6.15965 8.8141 6.1463 8.77509 6.14086 8.73461C6.13542 8.69413 6.13801 8.65298 6.14849 8.61351C6.15896 8.57403 6.17711 8.53701 6.2019 8.50455C7.38181 6.95821 8.81082 5.64444 10.4492 4.59979C10.5188 4.55545 10.6031 4.54055 10.6836 4.55837C10.7641 4.57619 10.8343 4.62526 10.8786 4.6948C10.9229 4.76433 10.9378 4.84863 10.92 4.92915C10.9022 5.00967 10.8531 5.07981 10.7836 5.12415C9.207 6.1295 7.83183 7.39374 6.69631 8.88183C6.66729 8.91993 6.62985 8.95081 6.58691 8.97204C6.54398 8.99327 6.49671 9.00427 6.44881 9.00419ZM21.2367 22.6188C21.1911 22.6188 21.1461 22.6089 21.1049 22.5896C21.0636 22.5703 21.027 22.5422 20.9978 22.5073C20.945 22.444 20.9194 22.3623 20.9267 22.2801C20.934 22.1979 20.9737 22.1221 21.037 22.0691C22.0532 21.2195 22.9082 20.2126 23.5784 19.0765C23.6208 19.0065 23.6891 18.9561 23.7685 18.9362C23.8478 18.9163 23.9318 18.9284 24.0023 18.97C24.0727 19.0115 24.124 19.0792 24.1449 19.1583C24.1659 19.2374 24.1548 19.3215 24.1141 19.3925C23.4078 20.5899 22.5067 21.651 21.436 22.5463C21.3801 22.5932 21.3096 22.6188 21.2367 22.6188Z" fill="white"/>
  </g>
  <defs>
    <clipPath id="clip0_1193_343">
      <rect width="34" height="34" fill="white"/>
    </clipPath>
  </defs>
</svg>