<svg width="447" height="276" viewBox="0 0 447 276" fill="none" xmlns="http://www.w3.org/2000/svg">
<g filter="url(#filter0_d_1_2920)">
<mask id="path-1-inside-1_1_2920" fill="white">
<path d="M14 27C14 15.9543 22.9543 7 34 7H64C75.0457 7 84 15.9543 84 27V57C84 68.0457 75.0457 77 64 77H34C22.9543 77 14 68.0457 14 57V27Z"/>
</mask>
<path d="M14 27C14 15.9543 22.9543 7 34 7H64C75.0457 7 84 15.9543 84 27V57C84 68.0457 75.0457 77 64 77H34C22.9543 77 14 68.0457 14 57V27Z" fill="white"/>
<path d="M13.5 27C13.5 15.6782 22.6782 6.5 34 6.5H64C75.3218 6.5 84.5 15.6782 84.5 27H83.5C83.5 16.2304 74.7696 7.5 64 7.5H34C23.2304 7.5 14.5 16.2304 14.5 27H13.5ZM84.5 58C84.5 69.3218 75.3218 78.5 64 78.5H34C22.6782 78.5 13.5 69.3218 13.5 58L14.5 57C14.5 67.2173 23.2304 75.5 34 75.5H64C74.7696 75.5 83.5 67.2173 83.5 57L84.5 58ZM34 78.5C22.6782 78.5 13.5 69.3218 13.5 58V27C13.5 15.6782 22.6782 6.5 34 6.5V7.5C23.2304 7.5 14.5 16.2304 14.5 27V57C14.5 67.2173 23.2304 75.5 34 75.5V78.5ZM64 6.5C75.3218 6.5 84.5 15.6782 84.5 27V58C84.5 69.3218 75.3218 78.5 64 78.5V75.5C74.7696 75.5 83.5 67.2173 83.5 57V27C83.5 16.2304 74.7696 7.5 64 7.5V6.5Z" fill="black" fill-opacity="0.1" mask="url(#path-1-inside-1_1_2920)"/>
</g>
<path d="M36.7924 41.75C36.7924 39.3467 37.329 37.2 38.4024 35.31C39.499 33.3967 40.9807 31.915 42.8474 30.865C44.7374 29.7917 46.849 29.255 49.1824 29.255C51.9124 29.255 54.3041 29.955 56.3574 31.355C58.4107 32.755 59.8457 34.6917 60.6624 37.165H55.0274C54.4674 35.9983 53.6741 35.1233 52.6474 34.54C51.6441 33.9567 50.4774 33.665 49.1474 33.665C47.7241 33.665 46.4524 34.0033 45.3324 34.68C44.2357 35.3333 43.3724 36.2667 42.7424 37.48C42.1357 38.6933 41.8324 40.1167 41.8324 41.75C41.8324 43.36 42.1357 44.7833 42.7424 46.02C43.3724 47.2333 44.2357 48.1783 45.3324 48.855C46.4524 49.5083 47.7241 49.835 49.1474 49.835C50.4774 49.835 51.6441 49.5433 52.6474 48.96C53.6741 48.3533 54.4674 47.4667 55.0274 46.3H60.6624C59.8457 48.7967 58.4107 50.745 56.3574 52.145C54.3274 53.5217 51.9357 54.21 49.1824 54.21C46.849 54.21 44.7374 53.685 42.8474 52.635C40.9807 51.5617 39.499 50.08 38.4024 48.19C37.329 46.3 36.7924 44.1533 36.7924 41.75Z" fill="black"/>
<g filter="url(#filter1_d_1_2920)">
<mask id="path-4-inside-2_1_2920" fill="white">
<path d="M101.25 27C101.25 15.9543 110.204 7 121.25 7H151.25C162.296 7 171.25 15.9543 171.25 27V57C171.25 68.0457 162.296 77 151.25 77H121.25C110.204 77 101.25 68.0457 101.25 57V27Z"/>
</mask>
<path d="M101.25 27C101.25 15.9543 110.204 7 121.25 7H151.25C162.296 7 171.25 15.9543 171.25 27V57C171.25 68.0457 162.296 77 151.25 77H121.25C110.204 77 101.25 68.0457 101.25 57V27Z" fill="white"/>
<path d="M100.75 27C100.75 15.6782 109.928 6.5 121.25 6.5H151.25C162.572 6.5 171.75 15.6782 171.75 27H170.75C170.75 16.2304 162.02 7.5 151.25 7.5H121.25C110.48 7.5 101.75 16.2304 101.75 27H100.75ZM171.75 58C171.75 69.3218 162.572 78.5 151.25 78.5H121.25C109.928 78.5 100.75 69.3218 100.75 58L101.75 57C101.75 67.2173 110.48 75.5 121.25 75.5H151.25C162.02 75.5 170.75 67.2173 170.75 57L171.75 58ZM121.25 78.5C109.928 78.5 100.75 69.3218 100.75 58V27C100.75 15.6782 109.928 6.5 121.25 6.5V7.5C110.48 7.5 101.75 16.2304 101.75 27V57C101.75 67.2173 110.48 75.5 121.25 75.5V78.5ZM151.25 6.5C162.572 6.5 171.75 15.6782 171.75 27V58C171.75 69.3218 162.572 78.5 151.25 78.5V75.5C162.02 75.5 170.75 67.2173 170.75 57V27C170.75 16.2304 162.02 7.5 151.25 7.5V6.5Z" fill="black" fill-opacity="0.1" mask="url(#path-4-inside-2_1_2920)"/>
</g>
<path d="M146.386 29.57V54H141.486V43.605H131.021V54H126.121V29.57H131.021V39.615H141.486V29.57H146.386Z" fill="black"/>
<g filter="url(#filter2_d_1_2920)">
<mask id="path-7-inside-3_1_2920" fill="white">
<path d="M188.5 27C188.5 15.9543 197.454 7 208.5 7H238.5C249.546 7 258.5 15.9543 258.5 27V57C258.5 68.0457 249.546 77 238.5 77H208.5C197.454 77 188.5 68.0457 188.5 57V27Z"/>
</mask>
<path d="M188.5 27C188.5 15.9543 197.454 7 208.5 7H238.5C249.546 7 258.5 15.9543 258.5 27V57C258.5 68.0457 249.546 77 238.5 77H208.5C197.454 77 188.5 68.0457 188.5 57V27Z" fill="#50C878"/>
<path d="M188 27C188 15.6782 197.178 6.5 208.5 6.5H238.5C249.822 6.5 259 15.6782 259 27H258C258 16.2304 249.27 7.5 238.5 7.5H208.5C197.73 7.5 189 16.2304 189 27H188ZM259 58C259 69.3218 249.822 78.5 238.5 78.5H208.5C197.178 78.5 188 69.3218 188 58L189 57C189 67.2173 197.73 75.5 208.5 75.5H238.5C249.27 75.5 258 67.2173 258 57L259 58ZM208.5 78.5C197.178 78.5 188 69.3218 188 58V27C188 15.6782 197.178 6.5 208.5 6.5V7.5C197.73 7.5 189 16.2304 189 27V57C189 67.2173 197.73 75.5 208.5 75.5V78.5ZM238.5 6.5C249.822 6.5 259 15.6782 259 27V58C259 69.3218 249.822 78.5 238.5 78.5V75.5C249.27 75.5 258 67.2173 258 57V27C258 16.2304 249.27 7.5 238.5 7.5V6.5Z" fill="black" fill-opacity="0.1" mask="url(#path-7-inside-3_1_2920)"/>
</g>
<path d="M228.368 49.345H218.638L217.028 54H211.883L220.668 29.535H226.373L235.158 54H229.978L228.368 49.345ZM227.038 45.425L223.503 35.205L219.968 45.425H227.038Z" fill="white"/>
<g filter="url(#filter3_d_1_2920)">
<mask id="path-10-inside-4_1_2920" fill="white">
<path d="M275.75 27C275.75 15.9543 284.704 7 295.75 7H325.75C336.796 7 345.75 15.9543 345.75 27V57C345.75 68.0457 336.796 77 325.75 77H295.75C284.704 77 275.75 68.0457 275.75 57V27Z"/>
</mask>
<path d="M275.75 27C275.75 15.9543 284.704 7 295.75 7H325.75C336.796 7 345.75 15.9543 345.75 27V57C345.75 68.0457 336.796 77 325.75 77H295.75C284.704 77 275.75 68.0457 275.75 57V27Z" fill="white"/>
<path d="M275.25 27C275.25 15.6782 284.428 6.5 295.75 6.5H325.75C337.072 6.5 346.25 15.6782 346.25 27H345.25C345.25 16.2304 336.52 7.5 325.75 7.5H295.75C284.98 7.5 276.25 16.2304 276.25 27H275.25ZM346.25 58C346.25 69.3218 337.072 78.5 325.75 78.5H295.75C284.428 78.5 275.25 69.3218 275.25 58L276.25 57C276.25 67.2173 284.98 75.5 295.75 75.5H325.75C336.52 75.5 345.25 67.2173 345.25 57L346.25 58ZM295.75 78.5C284.428 78.5 275.25 69.3218 275.25 58V27C275.25 15.6782 284.428 6.5 295.75 6.5V7.5C284.98 7.5 276.25 16.2304 276.25 27V57C276.25 67.2173 284.98 75.5 295.75 75.5V78.5ZM325.75 6.5C337.072 6.5 346.25 15.6782 346.25 27V58C346.25 69.3218 337.072 78.5 325.75 78.5V75.5C336.52 75.5 345.25 67.2173 345.25 57V27C345.25 16.2304 336.52 7.5 325.75 7.5V6.5Z" fill="black" fill-opacity="0.1" mask="url(#path-10-inside-4_1_2920)"/>
</g>
<path d="M313.194 29.57V54H308.294V29.57H313.194Z" fill="black"/>
<g filter="url(#filter4_d_1_2920)">
<mask id="path-13-inside-5_1_2920" fill="white">
<path d="M363 27C363 15.9543 371.954 7 383 7H413C424.046 7 433 15.9543 433 27V57C433 68.0457 424.046 77 413 77H383C371.954 77 363 68.0457 363 57V27Z"/>
</mask>
<path d="M363 27C363 15.9543 371.954 7 383 7H413C424.046 7 433 15.9543 433 27V57C433 68.0457 424.046 77 413 77H383C371.954 77 363 68.0457 363 57V27Z" fill="white"/>
<path d="M362.5 27C362.5 15.6782 371.678 6.5 383 6.5H413C424.322 6.5 433.5 15.6782 433.5 27H432.5C432.5 16.2304 423.77 7.5 413 7.5H383C372.23 7.5 363.5 16.2304 363.5 27H362.5ZM433.5 58C433.5 69.3218 424.322 78.5 413 78.5H383C371.678 78.5 362.5 69.3218 362.5 58L363.5 57C363.5 67.2173 372.23 75.5 383 75.5H413C423.77 75.5 432.5 67.2173 432.5 57L433.5 58ZM383 78.5C371.678 78.5 362.5 69.3218 362.5 58V27C362.5 15.6782 371.678 6.5 383 6.5V7.5C372.23 7.5 363.5 16.2304 363.5 27V57C363.5 67.2173 372.23 75.5 383 75.5V78.5ZM413 6.5C424.322 6.5 433.5 15.6782 433.5 27V58C433.5 69.3218 424.322 78.5 413 78.5V75.5C423.77 75.5 432.5 67.2173 432.5 57V27C432.5 16.2304 423.77 7.5 413 7.5V6.5Z" fill="black" fill-opacity="0.1" mask="url(#path-13-inside-5_1_2920)"/>
</g>
<path d="M408.441 54H403.541L392.446 37.235V54H387.546V29.535H392.446L403.541 46.335V29.535H408.441V54Z" fill="black"/>
<g filter="url(#filter5_d_1_2920)">
<mask id="path-16-inside-6_1_2920" fill="white">
<path d="M14 116C14 104.954 22.9543 96 34 96H64C75.0457 96 84 104.954 84 116V146C84 157.046 75.0457 166 64 166H34C22.9543 166 14 157.046 14 146V116Z"/>
</mask>
<path d="M14 116C14 104.954 22.9543 96 34 96H64C75.0457 96 84 104.954 84 116V146C84 157.046 75.0457 166 64 166H34C22.9543 166 14 157.046 14 146V116Z" fill="white"/>
<path d="M13.5 116C13.5 104.678 22.6782 95.5 34 95.5H64C75.3218 95.5 84.5 104.678 84.5 116H83.5C83.5 105.23 74.7696 96.5 64 96.5H34C23.2304 96.5 14.5 105.23 14.5 116H13.5ZM84.5 147C84.5 158.322 75.3218 167.5 64 167.5H34C22.6782 167.5 13.5 158.322 13.5 147L14.5 146C14.5 156.217 23.2304 164.5 34 164.5H64C74.7696 164.5 83.5 156.217 83.5 146L84.5 147ZM34 167.5C22.6782 167.5 13.5 158.322 13.5 147V116C13.5 104.678 22.6782 95.5 34 95.5V96.5C23.2304 96.5 14.5 105.23 14.5 116V146C14.5 156.217 23.2304 164.5 34 164.5V167.5ZM64 95.5C75.3218 95.5 84.5 104.678 84.5 116V147C84.5 158.322 75.3218 167.5 64 167.5V164.5C74.7696 164.5 83.5 156.217 83.5 146V116C83.5 105.23 74.7696 96.5 64 96.5V95.5Z" fill="black" fill-opacity="0.1" mask="url(#path-16-inside-6_1_2920)"/>
</g>
<path d="M54.0299 130.47C55.4066 130.727 56.5382 131.415 57.4249 132.535C58.3116 133.655 58.7549 134.938 58.7549 136.385C58.7549 137.692 58.4282 138.847 57.7749 139.85C57.1449 140.83 56.2232 141.6 55.0099 142.16C53.7966 142.72 52.3615 143 50.7049 143H40.1699V118.57H50.2499C51.9066 118.57 53.3299 118.838 54.5199 119.375C55.7332 119.912 56.6432 120.658 57.2499 121.615C57.8799 122.572 58.1949 123.657 58.1949 124.87C58.1949 126.293 57.8099 127.483 57.0399 128.44C56.2932 129.397 55.2899 130.073 54.0299 130.47ZM45.0699 128.65H49.5499C50.7166 128.65 51.6149 128.393 52.2449 127.88C52.8749 127.343 53.1899 126.585 53.1899 125.605C53.1899 124.625 52.8749 123.867 52.2449 123.33C51.6149 122.793 50.7166 122.525 49.5499 122.525H45.0699V128.65ZM50.0049 139.01C51.1949 139.01 52.1166 138.73 52.7699 138.17C53.4466 137.61 53.7849 136.817 53.7849 135.79C53.7849 134.74 53.4349 133.923 52.7349 133.34C52.0349 132.733 51.0899 132.43 49.8999 132.43H45.0699V139.01H50.0049Z" fill="black"/>
<g filter="url(#filter6_d_1_2920)">
<mask id="path-19-inside-7_1_2920" fill="white">
<path d="M101.25 116C101.25 104.954 110.204 96 121.25 96H151.25C162.296 96 171.25 104.954 171.25 116V146C171.25 157.046 162.296 166 151.25 166H121.25C110.204 166 101.25 157.046 101.25 146V116Z"/>
</mask>
<path d="M101.25 116C101.25 104.954 110.204 96 121.25 96H151.25C162.296 96 171.25 104.954 171.25 116V146C171.25 157.046 162.296 166 151.25 166H121.25C110.204 166 101.25 157.046 101.25 146V116Z" fill="#FFD700"/>
<path d="M100.75 116C100.75 104.678 109.928 95.5 121.25 95.5H151.25C162.572 95.5 171.75 104.678 171.75 116H170.75C170.75 105.23 162.02 96.5 151.25 96.5H121.25C110.48 96.5 101.75 105.23 101.75 116H100.75ZM171.75 147C171.75 158.322 162.572 167.5 151.25 167.5H121.25C109.928 167.5 100.75 158.322 100.75 147L101.75 146C101.75 156.217 110.48 164.5 121.25 164.5H151.25C162.02 164.5 170.75 156.217 170.75 146L171.75 147ZM121.25 167.5C109.928 167.5 100.75 158.322 100.75 147V116C100.75 104.678 109.928 95.5 121.25 95.5V96.5C110.48 96.5 101.75 105.23 101.75 116V146C101.75 156.217 110.48 164.5 121.25 164.5V167.5ZM151.25 95.5C162.572 95.5 171.75 104.678 171.75 116V147C171.75 158.322 162.572 167.5 151.25 167.5V164.5C162.02 164.5 170.75 156.217 170.75 146V116C170.75 105.23 162.02 96.5 151.25 96.5V95.5Z" fill="black" fill-opacity="0.1" mask="url(#path-19-inside-7_1_2920)"/>
</g>
<path d="M140.054 143L134.664 133.48H132.354V143H127.454V118.57H136.624C138.514 118.57 140.124 118.908 141.454 119.585C142.784 120.238 143.776 121.137 144.429 122.28C145.106 123.4 145.444 124.66 145.444 126.06C145.444 127.67 144.977 129.128 144.044 130.435C143.111 131.718 141.722 132.605 139.879 133.095L145.724 143H140.054ZM132.354 129.805H136.449C137.779 129.805 138.771 129.49 139.424 128.86C140.077 128.207 140.404 127.308 140.404 126.165C140.404 125.045 140.077 124.182 139.424 123.575C138.771 122.945 137.779 122.63 136.449 122.63H132.354V129.805Z" fill="white"/>
<g filter="url(#filter7_d_1_2920)">
<mask id="path-22-inside-8_1_2920" fill="white">
<path d="M188.5 116C188.5 104.954 197.454 96 208.5 96H238.5C249.546 96 258.5 104.954 258.5 116V146C258.5 157.046 249.546 166 238.5 166H208.5C197.454 166 188.5 157.046 188.5 146V116Z"/>
</mask>
<path d="M188.5 116C188.5 104.954 197.454 96 208.5 96H238.5C249.546 96 258.5 104.954 258.5 116V146C258.5 157.046 249.546 166 238.5 166H208.5C197.454 166 188.5 157.046 188.5 146V116Z" fill="white"/>
<path d="M188 116C188 104.678 197.178 95.5 208.5 95.5H238.5C249.822 95.5 259 104.678 259 116H258C258 105.23 249.27 96.5 238.5 96.5H208.5C197.73 96.5 189 105.23 189 116H188ZM259 147C259 158.322 249.822 167.5 238.5 167.5H208.5C197.178 167.5 188 158.322 188 147L189 146C189 156.217 197.73 164.5 208.5 164.5H238.5C249.27 164.5 258 156.217 258 146L259 147ZM208.5 167.5C197.178 167.5 188 158.322 188 147V116C188 104.678 197.178 95.5 208.5 95.5V96.5C197.73 96.5 189 105.23 189 116V146C189 156.217 197.73 164.5 208.5 164.5V167.5ZM238.5 95.5C249.822 95.5 259 104.678 259 116V147C259 158.322 249.822 167.5 238.5 167.5V164.5C249.27 164.5 258 156.217 258 146V116C258 105.23 249.27 96.5 238.5 96.5V95.5Z" fill="black" fill-opacity="0.1" mask="url(#path-22-inside-8_1_2920)"/>
</g>
<path d="M221.501 122.525V128.65H229.726V132.535H221.501V139.01H230.776V143H216.601V118.535H230.776V122.525H221.501Z" fill="black"/>
<g filter="url(#filter8_d_1_2920)">
<mask id="path-25-inside-9_1_2920" fill="white">
<path d="M275.75 116C275.75 104.954 284.704 96 295.75 96H325.75C336.796 96 345.75 104.954 345.75 116V146C345.75 157.046 336.796 166 325.75 166H295.75C284.704 166 275.75 157.046 275.75 146V116Z"/>
</mask>
<path d="M275.75 116C275.75 104.954 284.704 96 295.75 96H325.75C336.796 96 345.75 104.954 345.75 116V146C345.75 157.046 336.796 166 325.75 166H295.75C284.704 166 275.75 157.046 275.75 146V116Z" fill="white"/>
<path d="M275.25 116C275.25 104.678 284.428 95.5 295.75 95.5H325.75C337.072 95.5 346.25 104.678 346.25 116H345.25C345.25 105.23 336.52 96.5 325.75 96.5H295.75C284.98 96.5 276.25 105.23 276.25 116H275.25ZM346.25 147C346.25 158.322 337.072 167.5 325.75 167.5H295.75C284.428 167.5 275.25 158.322 275.25 147L276.25 146C276.25 156.217 284.98 164.5 295.75 164.5H325.75C336.52 164.5 345.25 156.217 345.25 146L346.25 147ZM295.75 167.5C284.428 167.5 275.25 158.322 275.25 147V116C275.25 104.678 284.428 95.5 295.75 95.5V96.5C284.98 96.5 276.25 105.23 276.25 116V146C276.25 156.217 284.98 164.5 295.75 164.5V167.5ZM325.75 95.5C337.072 95.5 346.25 104.678 346.25 116V147C346.25 158.322 337.072 167.5 325.75 167.5V164.5C336.52 164.5 345.25 156.217 345.25 146V116C345.25 105.23 336.52 96.5 325.75 96.5V95.5Z" fill="black" fill-opacity="0.1" mask="url(#path-25-inside-9_1_2920)"/>
</g>
<path d="M315.618 138.345H305.888L304.278 143H299.133L307.918 118.535H313.623L322.408 143H317.228L315.618 138.345ZM314.288 134.425L310.753 124.205L307.218 134.425H314.288Z" fill="black"/>
<g filter="url(#filter9_d_1_2920)">
<mask id="path-28-inside-10_1_2920" fill="white">
<path d="M363 116C363 104.954 371.954 96 383 96H413C424.046 96 433 104.954 433 116V146C433 157.046 424.046 166 413 166H383C371.954 166 363 157.046 363 146V116Z"/>
</mask>
<path d="M363 116C363 104.954 371.954 96 383 96H413C424.046 96 433 104.954 433 116V146C433 157.046 424.046 166 413 166H383C371.954 166 363 157.046 363 146V116Z" fill="white"/>
<path d="M362.5 116C362.5 104.678 371.678 95.5 383 95.5H413C424.322 95.5 433.5 104.678 433.5 116H432.5C432.5 105.23 423.77 96.5 413 96.5H383C372.23 96.5 363.5 105.23 363.5 116H362.5ZM433.5 147C433.5 158.322 424.322 167.5 413 167.5H383C371.678 167.5 362.5 158.322 362.5 147L363.5 146C363.5 156.217 372.23 164.5 383 164.5H413C423.77 164.5 432.5 156.217 432.5 146L433.5 147ZM383 167.5C371.678 167.5 362.5 158.322 362.5 147V116C362.5 104.678 371.678 95.5 383 95.5V96.5C372.23 96.5 363.5 105.23 363.5 116V146C363.5 156.217 372.23 164.5 383 164.5V167.5ZM413 95.5C424.322 95.5 433.5 104.678 433.5 116V147C433.5 158.322 424.322 167.5 413 167.5V164.5C423.77 164.5 432.5 156.217 432.5 146V116C432.5 105.23 423.77 96.5 413 96.5V95.5Z" fill="black" fill-opacity="0.1" mask="url(#path-28-inside-10_1_2920)"/>
</g>
<path d="M402.601 143L393.711 132.115V143H388.811V118.57H393.711V129.525L402.601 118.57H408.516L398.436 130.68L408.796 143H402.601Z" fill="black"/>
<g filter="url(#filter10_d_1_2920)">
<mask id="path-31-inside-11_1_2920" fill="white">
<path d="M14 205C14 193.954 22.9543 185 34 185H64C75.0457 185 84 193.954 84 205V235C84 246.046 75.0457 255 64 255H34C22.9543 255 14 246.046 14 235V205Z"/>
</mask>
<path d="M14 205C14 193.954 22.9543 185 34 185H64C75.0457 185 84 193.954 84 205V235C84 246.046 75.0457 255 64 255H34C22.9543 255 14 246.046 14 235V205Z" fill="white"/>
<path d="M13.5 205C13.5 193.678 22.6782 184.5 34 184.5H64C75.3218 184.5 84.5 193.678 84.5 205H83.5C83.5 194.23 74.7696 185.5 64 185.5H34C23.2304 185.5 14.5 194.23 14.5 205H13.5ZM84.5 236C84.5 247.322 75.3218 256.5 64 256.5H34C22.6782 256.5 13.5 247.322 13.5 236L14.5 235C14.5 245.217 23.2304 253.5 34 253.5H64C74.7696 253.5 83.5 245.217 83.5 235L84.5 236ZM34 256.5C22.6782 256.5 13.5 247.322 13.5 236V205C13.5 193.678 22.6782 184.5 34 184.5V185.5C23.2304 185.5 14.5 194.23 14.5 205V235C14.5 245.217 23.2304 253.5 34 253.5V256.5ZM64 184.5C75.3218 184.5 84.5 193.678 84.5 205V236C84.5 247.322 75.3218 256.5 64 256.5V253.5C74.7696 253.5 83.5 245.217 83.5 235V205C83.5 194.23 74.7696 185.5 64 185.5V184.5Z" fill="black" fill-opacity="0.1" mask="url(#path-31-inside-11_1_2920)"/>
</g>
<path d="M47.4111 207.57C49.9777 207.57 52.2294 208.072 54.1661 209.075C56.1261 210.078 57.6311 211.513 58.6811 213.38C59.7544 215.223 60.2911 217.37 60.2911 219.82C60.2911 222.27 59.7544 224.417 58.6811 226.26C57.6311 228.08 56.1261 229.492 54.1661 230.495C52.2294 231.498 49.9777 232 47.4111 232H38.8711V207.57H47.4111ZM47.2361 227.835C49.8027 227.835 51.7861 227.135 53.1861 225.735C54.5861 224.335 55.2861 222.363 55.2861 219.82C55.2861 217.277 54.5861 215.293 53.1861 213.87C51.7861 212.423 49.8027 211.7 47.2361 211.7H43.7711V227.835H47.2361Z" fill="black"/>
<g filter="url(#filter11_d_1_2920)">
<mask id="path-34-inside-12_1_2920" fill="white">
<path d="M101.25 205C101.25 193.954 110.204 185 121.25 185H151.25C162.296 185 171.25 193.954 171.25 205V235C171.25 246.046 162.296 255 151.25 255H121.25C110.204 255 101.25 246.046 101.25 235V205Z"/>
</mask>
<path d="M101.25 205C101.25 193.954 110.204 185 121.25 185H151.25C162.296 185 171.25 193.954 171.25 205V235C171.25 246.046 162.296 255 151.25 255H121.25C110.204 255 101.25 246.046 101.25 235V205Z" fill="white"/>
<path d="M100.75 205C100.75 193.678 109.928 184.5 121.25 184.5H151.25C162.572 184.5 171.75 193.678 171.75 205H170.75C170.75 194.23 162.02 185.5 151.25 185.5H121.25C110.48 185.5 101.75 194.23 101.75 205H100.75ZM171.75 236C171.75 247.322 162.572 256.5 151.25 256.5H121.25C109.928 256.5 100.75 247.322 100.75 236L101.75 235C101.75 245.217 110.48 253.5 121.25 253.5H151.25C162.02 253.5 170.75 245.217 170.75 235L171.75 236ZM121.25 256.5C109.928 256.5 100.75 247.322 100.75 236V205C100.75 193.678 109.928 184.5 121.25 184.5V185.5C110.48 185.5 101.75 194.23 101.75 205V235C101.75 245.217 110.48 253.5 121.25 253.5V256.5ZM151.25 184.5C162.572 184.5 171.75 193.678 171.75 205V236C171.75 247.322 162.572 256.5 151.25 256.5V253.5C162.02 253.5 170.75 245.217 170.75 235V205C170.75 194.23 162.02 185.5 151.25 185.5V184.5Z" fill="black" fill-opacity="0.1" mask="url(#path-34-inside-12_1_2920)"/>
</g>
<path d="M141.118 227.345H131.388L129.778 232H124.633L133.418 207.535H139.123L147.908 232H142.728L141.118 227.345ZM139.788 223.425L136.253 213.205L132.718 223.425H139.788Z" fill="black"/>
<g filter="url(#filter12_d_1_2920)">
<mask id="path-37-inside-13_1_2920" fill="white">
<path d="M188.5 205C188.5 193.954 197.454 185 208.5 185H238.5C249.546 185 258.5 193.954 258.5 205V235C258.5 246.046 249.546 255 238.5 255H208.5C197.454 255 188.5 246.046 188.5 235V205Z"/>
</mask>
<path d="M188.5 205C188.5 193.954 197.454 185 208.5 185H238.5C249.546 185 258.5 193.954 258.5 205V235C258.5 246.046 249.546 255 238.5 255H208.5C197.454 255 188.5 246.046 188.5 235V205Z" fill="white"/>
<path d="M188 205C188 193.678 197.178 184.5 208.5 184.5H238.5C249.822 184.5 259 193.678 259 205H258C258 194.23 249.27 185.5 238.5 185.5H208.5C197.73 185.5 189 194.23 189 205H188ZM259 236C259 247.322 249.822 256.5 238.5 256.5H208.5C197.178 256.5 188 247.322 188 236L189 235C189 245.217 197.73 253.5 208.5 253.5H238.5C249.27 253.5 258 245.217 258 235L259 236ZM208.5 256.5C197.178 256.5 188 247.322 188 236V205C188 193.678 197.178 184.5 208.5 184.5V185.5C197.73 185.5 189 194.23 189 205V235C189 245.217 197.73 253.5 208.5 253.5V256.5ZM238.5 184.5C249.822 184.5 259 193.678 259 205V236C259 247.322 249.822 256.5 238.5 256.5V253.5C249.27 253.5 258 245.217 258 235V205C258 194.23 249.27 185.5 238.5 185.5V184.5Z" fill="black" fill-opacity="0.1" mask="url(#path-37-inside-13_1_2920)"/>
</g>
<path d="M225.944 207.57V232H221.044V207.57H225.944Z" fill="black"/>
<g filter="url(#filter13_d_1_2920)">
<mask id="path-40-inside-14_1_2920" fill="white">
<path d="M275.75 205C275.75 193.954 284.704 185 295.75 185H325.75C336.796 185 345.75 193.954 345.75 205V235C345.75 246.046 336.796 255 325.75 255H295.75C284.704 255 275.75 246.046 275.75 235V205Z"/>
</mask>
<path d="M275.75 205C275.75 193.954 284.704 185 295.75 185H325.75C336.796 185 345.75 193.954 345.75 205V235C345.75 246.046 336.796 255 325.75 255H295.75C284.704 255 275.75 246.046 275.75 235V205Z" fill="#C1C1C1"/>
<path d="M275.25 205C275.25 193.678 284.428 184.5 295.75 184.5H325.75C337.072 184.5 346.25 193.678 346.25 205H345.25C345.25 194.23 336.52 185.5 325.75 185.5H295.75C284.98 185.5 276.25 194.23 276.25 205H275.25ZM346.25 236C346.25 247.322 337.072 256.5 325.75 256.5H295.75C284.428 256.5 275.25 247.322 275.25 236L276.25 235C276.25 245.217 284.98 253.5 295.75 253.5H325.75C336.52 253.5 345.25 245.217 345.25 235L346.25 236ZM295.75 256.5C284.428 256.5 275.25 247.322 275.25 236V205C275.25 193.678 284.428 184.5 295.75 184.5V185.5C284.98 185.5 276.25 194.23 276.25 205V235C276.25 245.217 284.98 253.5 295.75 253.5V256.5ZM325.75 184.5C337.072 184.5 346.25 193.678 346.25 205V236C346.25 247.322 337.072 256.5 325.75 256.5V253.5C336.52 253.5 345.25 245.217 345.25 235V205C345.25 194.23 336.52 185.5 325.75 185.5V184.5Z" fill="black" fill-opacity="0.1" mask="url(#path-40-inside-14_1_2920)"/>
</g>
<path d="M310.033 228.115H318.083V232H305.133V207.57H310.033V228.115Z" fill="white"/>
<g filter="url(#filter14_d_1_2920)">
<mask id="path-43-inside-15_1_2920" fill="white">
<path d="M363 205C363 193.954 371.954 185 383 185H413C424.046 185 433 193.954 433 205V235C433 246.046 424.046 255 413 255H383C371.954 255 363 246.046 363 235V205Z"/>
</mask>
<path d="M363 205C363 193.954 371.954 185 383 185H413C424.046 185 433 193.954 433 205V235C433 246.046 424.046 255 413 255H383C371.954 255 363 246.046 363 235V205Z" fill="white"/>
<path d="M362.5 205C362.5 193.678 371.678 184.5 383 184.5H413C424.322 184.5 433.5 193.678 433.5 205H432.5C432.5 194.23 423.77 185.5 413 185.5H383C372.23 185.5 363.5 194.23 363.5 205H362.5ZM433.5 236C433.5 247.322 424.322 256.5 413 256.5H383C371.678 256.5 362.5 247.322 362.5 236L363.5 235C363.5 245.217 372.23 253.5 383 253.5H413C423.77 253.5 432.5 245.217 432.5 235L433.5 236ZM383 256.5C371.678 256.5 362.5 247.322 362.5 236V205C362.5 193.678 371.678 184.5 383 184.5V185.5C372.23 185.5 363.5 194.23 363.5 205V235C363.5 245.217 372.23 253.5 383 253.5V256.5ZM413 184.5C424.322 184.5 433.5 193.678 433.5 205V236C433.5 247.322 424.322 256.5 413 256.5V253.5C423.77 253.5 432.5 245.217 432.5 235V205C432.5 194.23 423.77 185.5 413 185.5V184.5Z" fill="black" fill-opacity="0.1" mask="url(#path-43-inside-15_1_2920)"/>
</g>
<path d="M408.715 207.57L400.455 223.495V232H395.555V223.495L387.26 207.57H392.79L398.04 218.735L403.255 207.57H408.715Z" fill="black"/>
<defs>
<filter id="filter0_d_1_2920" x="0" y="0" width="98" height="98" filterUnits="userSpaceOnUse" color-interpolation-filters="sRGB">
<feFlood flood-opacity="0" result="BackgroundImageFix"/>
<feColorMatrix in="SourceAlpha" type="matrix" values="0 0 0 0 0 0 0 0 0 0 0 0 0 0 0 0 0 0 127 0" result="hardAlpha"/>
<feOffset dy="7"/>
<feGaussianBlur stdDeviation="7"/>
<feComposite in2="hardAlpha" operator="out"/>
<feColorMatrix type="matrix" values="0 0 0 0 0 0 0 0 0 0 0 0 0 0 0 0 0 0 0.1 0"/>
<feBlend mode="normal" in2="BackgroundImageFix" result="effect1_dropShadow_1_2920"/>
<feBlend mode="normal" in="SourceGraphic" in2="effect1_dropShadow_1_2920" result="shape"/>
</filter>
<filter id="filter1_d_1_2920" x="87.25" y="0" width="98" height="98" filterUnits="userSpaceOnUse" color-interpolation-filters="sRGB">
<feFlood flood-opacity="0" result="BackgroundImageFix"/>
<feColorMatrix in="SourceAlpha" type="matrix" values="0 0 0 0 0 0 0 0 0 0 0 0 0 0 0 0 0 0 127 0" result="hardAlpha"/>
<feOffset dy="7"/>
<feGaussianBlur stdDeviation="7"/>
<feComposite in2="hardAlpha" operator="out"/>
<feColorMatrix type="matrix" values="0 0 0 0 0 0 0 0 0 0 0 0 0 0 0 0 0 0 0.1 0"/>
<feBlend mode="normal" in2="BackgroundImageFix" result="effect1_dropShadow_1_2920"/>
<feBlend mode="normal" in="SourceGraphic" in2="effect1_dropShadow_1_2920" result="shape"/>
</filter>
<filter id="filter2_d_1_2920" x="174.5" y="0" width="98" height="98" filterUnits="userSpaceOnUse" color-interpolation-filters="sRGB">
<feFlood flood-opacity="0" result="BackgroundImageFix"/>
<feColorMatrix in="SourceAlpha" type="matrix" values="0 0 0 0 0 0 0 0 0 0 0 0 0 0 0 0 0 0 127 0" result="hardAlpha"/>
<feOffset dy="7"/>
<feGaussianBlur stdDeviation="7"/>
<feComposite in2="hardAlpha" operator="out"/>
<feColorMatrix type="matrix" values="0 0 0 0 0 0 0 0 0 0 0 0 0 0 0 0 0 0 0.1 0"/>
<feBlend mode="normal" in2="BackgroundImageFix" result="effect1_dropShadow_1_2920"/>
<feBlend mode="normal" in="SourceGraphic" in2="effect1_dropShadow_1_2920" result="shape"/>
</filter>
<filter id="filter3_d_1_2920" x="261.75" y="0" width="98" height="98" filterUnits="userSpaceOnUse" color-interpolation-filters="sRGB">
<feFlood flood-opacity="0" result="BackgroundImageFix"/>
<feColorMatrix in="SourceAlpha" type="matrix" values="0 0 0 0 0 0 0 0 0 0 0 0 0 0 0 0 0 0 127 0" result="hardAlpha"/>
<feOffset dy="7"/>
<feGaussianBlur stdDeviation="7"/>
<feComposite in2="hardAlpha" operator="out"/>
<feColorMatrix type="matrix" values="0 0 0 0 0 0 0 0 0 0 0 0 0 0 0 0 0 0 0.1 0"/>
<feBlend mode="normal" in2="BackgroundImageFix" result="effect1_dropShadow_1_2920"/>
<feBlend mode="normal" in="SourceGraphic" in2="effect1_dropShadow_1_2920" result="shape"/>
</filter>
<filter id="filter4_d_1_2920" x="349" y="0" width="98" height="98" filterUnits="userSpaceOnUse" color-interpolation-filters="sRGB">
<feFlood flood-opacity="0" result="BackgroundImageFix"/>
<feColorMatrix in="SourceAlpha" type="matrix" values="0 0 0 0 0 0 0 0 0 0 0 0 0 0 0 0 0 0 127 0" result="hardAlpha"/>
<feOffset dy="7"/>
<feGaussianBlur stdDeviation="7"/>
<feComposite in2="hardAlpha" operator="out"/>
<feColorMatrix type="matrix" values="0 0 0 0 0 0 0 0 0 0 0 0 0 0 0 0 0 0 0.1 0"/>
<feBlend mode="normal" in2="BackgroundImageFix" result="effect1_dropShadow_1_2920"/>
<feBlend mode="normal" in="SourceGraphic" in2="effect1_dropShadow_1_2920" result="shape"/>
</filter>
<filter id="filter5_d_1_2920" x="0" y="89" width="98" height="98" filterUnits="userSpaceOnUse" color-interpolation-filters="sRGB">
<feFlood flood-opacity="0" result="BackgroundImageFix"/>
<feColorMatrix in="SourceAlpha" type="matrix" values="0 0 0 0 0 0 0 0 0 0 0 0 0 0 0 0 0 0 127 0" result="hardAlpha"/>
<feOffset dy="7"/>
<feGaussianBlur stdDeviation="7"/>
<feComposite in2="hardAlpha" operator="out"/>
<feColorMatrix type="matrix" values="0 0 0 0 0 0 0 0 0 0 0 0 0 0 0 0 0 0 0.1 0"/>
<feBlend mode="normal" in2="BackgroundImageFix" result="effect1_dropShadow_1_2920"/>
<feBlend mode="normal" in="SourceGraphic" in2="effect1_dropShadow_1_2920" result="shape"/>
</filter>
<filter id="filter6_d_1_2920" x="87.25" y="89" width="98" height="98" filterUnits="userSpaceOnUse" color-interpolation-filters="sRGB">
<feFlood flood-opacity="0" result="BackgroundImageFix"/>
<feColorMatrix in="SourceAlpha" type="matrix" values="0 0 0 0 0 0 0 0 0 0 0 0 0 0 0 0 0 0 127 0" result="hardAlpha"/>
<feOffset dy="7"/>
<feGaussianBlur stdDeviation="7"/>
<feComposite in2="hardAlpha" operator="out"/>
<feColorMatrix type="matrix" values="0 0 0 0 0 0 0 0 0 0 0 0 0 0 0 0 0 0 0.1 0"/>
<feBlend mode="normal" in2="BackgroundImageFix" result="effect1_dropShadow_1_2920"/>
<feBlend mode="normal" in="SourceGraphic" in2="effect1_dropShadow_1_2920" result="shape"/>
</filter>
<filter id="filter7_d_1_2920" x="174.5" y="89" width="98" height="98" filterUnits="userSpaceOnUse" color-interpolation-filters="sRGB">
<feFlood flood-opacity="0" result="BackgroundImageFix"/>
<feColorMatrix in="SourceAlpha" type="matrix" values="0 0 0 0 0 0 0 0 0 0 0 0 0 0 0 0 0 0 127 0" result="hardAlpha"/>
<feOffset dy="7"/>
<feGaussianBlur stdDeviation="7"/>
<feComposite in2="hardAlpha" operator="out"/>
<feColorMatrix type="matrix" values="0 0 0 0 0 0 0 0 0 0 0 0 0 0 0 0 0 0 0.1 0"/>
<feBlend mode="normal" in2="BackgroundImageFix" result="effect1_dropShadow_1_2920"/>
<feBlend mode="normal" in="SourceGraphic" in2="effect1_dropShadow_1_2920" result="shape"/>
</filter>
<filter id="filter8_d_1_2920" x="261.75" y="89" width="98" height="98" filterUnits="userSpaceOnUse" color-interpolation-filters="sRGB">
<feFlood flood-opacity="0" result="BackgroundImageFix"/>
<feColorMatrix in="SourceAlpha" type="matrix" values="0 0 0 0 0 0 0 0 0 0 0 0 0 0 0 0 0 0 127 0" result="hardAlpha"/>
<feOffset dy="7"/>
<feGaussianBlur stdDeviation="7"/>
<feComposite in2="hardAlpha" operator="out"/>
<feColorMatrix type="matrix" values="0 0 0 0 0 0 0 0 0 0 0 0 0 0 0 0 0 0 0.1 0"/>
<feBlend mode="normal" in2="BackgroundImageFix" result="effect1_dropShadow_1_2920"/>
<feBlend mode="normal" in="SourceGraphic" in2="effect1_dropShadow_1_2920" result="shape"/>
</filter>
<filter id="filter9_d_1_2920" x="349" y="89" width="98" height="98" filterUnits="userSpaceOnUse" color-interpolation-filters="sRGB">
<feFlood flood-opacity="0" result="BackgroundImageFix"/>
<feColorMatrix in="SourceAlpha" type="matrix" values="0 0 0 0 0 0 0 0 0 0 0 0 0 0 0 0 0 0 127 0" result="hardAlpha"/>
<feOffset dy="7"/>
<feGaussianBlur stdDeviation="7"/>
<feComposite in2="hardAlpha" operator="out"/>
<feColorMatrix type="matrix" values="0 0 0 0 0 0 0 0 0 0 0 0 0 0 0 0 0 0 0.1 0"/>
<feBlend mode="normal" in2="BackgroundImageFix" result="effect1_dropShadow_1_2920"/>
<feBlend mode="normal" in="SourceGraphic" in2="effect1_dropShadow_1_2920" result="shape"/>
</filter>
<filter id="filter10_d_1_2920" x="0" y="178" width="98" height="98" filterUnits="userSpaceOnUse" color-interpolation-filters="sRGB">
<feFlood flood-opacity="0" result="BackgroundImageFix"/>
<feColorMatrix in="SourceAlpha" type="matrix" values="0 0 0 0 0 0 0 0 0 0 0 0 0 0 0 0 0 0 127 0" result="hardAlpha"/>
<feOffset dy="7"/>
<feGaussianBlur stdDeviation="7"/>
<feComposite in2="hardAlpha" operator="out"/>
<feColorMatrix type="matrix" values="0 0 0 0 0 0 0 0 0 0 0 0 0 0 0 0 0 0 0.1 0"/>
<feBlend mode="normal" in2="BackgroundImageFix" result="effect1_dropShadow_1_2920"/>
<feBlend mode="normal" in="SourceGraphic" in2="effect1_dropShadow_1_2920" result="shape"/>
</filter>
<filter id="filter11_d_1_2920" x="87.25" y="178" width="98" height="98" filterUnits="userSpaceOnUse" color-interpolation-filters="sRGB">
<feFlood flood-opacity="0" result="BackgroundImageFix"/>
<feColorMatrix in="SourceAlpha" type="matrix" values="0 0 0 0 0 0 0 0 0 0 0 0 0 0 0 0 0 0 127 0" result="hardAlpha"/>
<feOffset dy="7"/>
<feGaussianBlur stdDeviation="7"/>
<feComposite in2="hardAlpha" operator="out"/>
<feColorMatrix type="matrix" values="0 0 0 0 0 0 0 0 0 0 0 0 0 0 0 0 0 0 0.1 0"/>
<feBlend mode="normal" in2="BackgroundImageFix" result="effect1_dropShadow_1_2920"/>
<feBlend mode="normal" in="SourceGraphic" in2="effect1_dropShadow_1_2920" result="shape"/>
</filter>
<filter id="filter12_d_1_2920" x="174.5" y="178" width="98" height="98" filterUnits="userSpaceOnUse" color-interpolation-filters="sRGB">
<feFlood flood-opacity="0" result="BackgroundImageFix"/>
<feColorMatrix in="SourceAlpha" type="matrix" values="0 0 0 0 0 0 0 0 0 0 0 0 0 0 0 0 0 0 127 0" result="hardAlpha"/>
<feOffset dy="7"/>
<feGaussianBlur stdDeviation="7"/>
<feComposite in2="hardAlpha" operator="out"/>
<feColorMatrix type="matrix" values="0 0 0 0 0 0 0 0 0 0 0 0 0 0 0 0 0 0 0.1 0"/>
<feBlend mode="normal" in2="BackgroundImageFix" result="effect1_dropShadow_1_2920"/>
<feBlend mode="normal" in="SourceGraphic" in2="effect1_dropShadow_1_2920" result="shape"/>
</filter>
<filter id="filter13_d_1_2920" x="261.75" y="178" width="98" height="98" filterUnits="userSpaceOnUse" color-interpolation-filters="sRGB">
<feFlood flood-opacity="0" result="BackgroundImageFix"/>
<feColorMatrix in="SourceAlpha" type="matrix" values="0 0 0 0 0 0 0 0 0 0 0 0 0 0 0 0 0 0 127 0" result="hardAlpha"/>
<feOffset dy="7"/>
<feGaussianBlur stdDeviation="7"/>
<feComposite in2="hardAlpha" operator="out"/>
<feColorMatrix type="matrix" values="0 0 0 0 0 0 0 0 0 0 0 0 0 0 0 0 0 0 0.1 0"/>
<feBlend mode="normal" in2="BackgroundImageFix" result="effect1_dropShadow_1_2920"/>
<feBlend mode="normal" in="SourceGraphic" in2="effect1_dropShadow_1_2920" result="shape"/>
</filter>
<filter id="filter14_d_1_2920" x="349" y="178" width="98" height="98" filterUnits="userSpaceOnUse" color-interpolation-filters="sRGB">
<feFlood flood-opacity="0" result="BackgroundImageFix"/>
<feColorMatrix in="SourceAlpha" type="matrix" values="0 0 0 0 0 0 0 0 0 0 0 0 0 0 0 0 0 0 127 0" result="hardAlpha"/>
<feOffset dy="7"/>
<feGaussianBlur stdDeviation="7"/>
<feComposite in2="hardAlpha" operator="out"/>
<feColorMatrix type="matrix" values="0 0 0 0 0 0 0 0 0 0 0 0 0 0 0 0 0 0 0.1 0"/>
<feBlend mode="normal" in2="BackgroundImageFix" result="effect1_dropShadow_1_2920"/>
<feBlend mode="normal" in="SourceGraphic" in2="effect1_dropShadow_1_2920" result="shape"/>
</filter>
</defs>
</svg>
