<svg width="26" height="26" viewBox="0 0 26 26" fill="none" xmlns="http://www.w3.org/2000/svg">
<g id="vuesax/linear/setting-2">
<g id="setting-2">
<path id="Vector" d="M12.9997 16.25C14.7946 16.25 16.2497 14.7949 16.2497 13C16.2497 11.2051 14.7946 9.75 12.9997 9.75C11.2048 9.75 9.74968 11.2051 9.74968 13C9.74968 14.7949 11.2048 16.25 12.9997 16.25Z" stroke="#50C878" stroke-width="1.59091" stroke-miterlimit="10" stroke-linecap="round" stroke-linejoin="round"/>
<path id="Vector_2" d="M17.377 3.02263C16.5212 2.51347 15.4162 2.8168 14.907 3.67263L14.7878 3.87847C13.802 5.5793 12.1987 5.5793 11.2237 3.87847L11.1045 3.67263C10.5953 2.8168 9.49032 2.51347 8.63449 3.02263L6.76032 4.09513C5.77449 4.65847 5.43865 5.92597 6.00199 6.90097C6.98782 8.6018 6.18615 9.98847 4.22532 9.98847C3.08782 9.98847 2.16699 10.9201 2.16699 12.0468V13.9535C2.16699 15.0801 3.08782 16.0118 4.22532 16.0118C6.18615 16.0118 6.98782 17.3985 6.00199 19.0993C5.43865 20.0743 5.77449 21.3418 6.76032 21.9051L8.63449 22.9776C9.49032 23.4868 10.5953 23.1835 11.1045 22.3276L11.2237 22.1218C12.2095 20.421 13.8128 20.421 14.7878 22.1218L14.907 22.3276C15.4162 23.1835 16.5212 23.4868 17.377 22.9776L19.2512 21.9051C20.237 21.3418 20.5728 20.0851 20.0095 19.0993C19.0237 17.3985 19.8253 16.0118 21.7862 16.0118C22.9237 16.0118 23.8445 15.0801 23.8445 13.9535V12.0468C23.8445 10.9093 22.9128 9.98847 21.7862 9.98847" stroke="#979797" stroke-width="1.59091" stroke-miterlimit="10" stroke-linecap="round" stroke-linejoin="round"/>
<circle id="Ellipse 1" cx="22.2086" cy="4.87508" r="2.70833" fill="#50C878"/>
</g>
</g>
</svg>
